<?xml version="1.0" encoding="utf-8"?>
<!-- Generator: Adobe Illustrator 17.1.0, SVG Export Plug-In . SVG Version: 6.00 Build 0)  -->
<!DOCTYPE svg PUBLIC "-//W3C//DTD SVG 1.1//EN" "http://www.w3.org/Graphics/SVG/1.1/DTD/svg11.dtd">
<svg version="1.1" id="Layer_1" xmlns="http://www.w3.org/2000/svg" xmlns:xlink="http://www.w3.org/1999/xlink" x="0px" y="0px"
	 viewBox="0 0 143 155.6" enable-background="new 0 0 143 155.6" xml:space="preserve">
<g>
	<path fill="#1A1E23" d="M48.8,110.9c-4.3-4.3-8.6-8.6-12.9-13c-4.5-4.5-7.1-10.1-7.8-16.6c-1-8.5,1.2-15.9,6.7-22.4
		c0.4-0.5,0.8-0.9,1.5-1.6l12.6-12.7V20.9C48.8,9.9,39.9,1,29,1S9.1,9.9,9.1,20.9v113.9c0,11,8.9,19.9,19.9,19.9s19.9-8.9,19.9-19.9
		V110.9z"/>
	<path fill="#1A1E23" d="M97.8,65.4l0.7-0.7c2.8-2.8,5.6-5.6,8.4-8.4c6.9-6.8,14-13.9,20.9-21c5.7-5.9,7.3-12.3,5-20.3
		c-2.4-8.4-10.1-14-19-14c-0.6,0-1.2,0-1.8,0.1C107,1.5,102.9,3.4,99.4,7l-0.2,0.2C80.3,26,61.4,44.9,42.6,63.7
		c-0.4,0.4-0.7,0.7-0.9,1c-3.8,4.6-5.3,9.6-4.6,15.6c0.5,4.5,2.2,8.2,5.3,11.2c6,6.1,12.1,12.1,18.1,18.2l0.2,0.2l0.1-0.3
		c1.9-6.6,5.3-12.4,10.2-17.3C75.9,87.3,85.2,78,97.8,65.4z"/>
	<path fill="#2AE58B" d="M117,154.3c4.5-0.7,8.2-2.6,11.2-5.7c4.5-4.6,6.3-10.1,5.6-16.7c-0.5-4.5-2.3-8.3-5.5-11.6
		c-7.7-7.7-25.1-25.1-31.5-31.5l-4.8-4.8l-0.1,0.1c-9.2,9.1-13.9,13.9-16.2,16.2c-0.8,0.8-1.6,1.8-2.2,2.9c-0.8,1.6-1.3,3.2-1.6,4.9
		c-0.3,1.4-0.4,2.8-0.3,4.4c0,0.6,0.1,1.1,0.1,1.7c0.1,1.3,0.4,2.7,1,4.3c0.6,1.8,1.5,3.6,2.9,5.5c0.1,0.2,0.4,0.5,0.6,0.9l0,0l4,4
		c3.9,3.9,16.4,16.5,19.9,19.9c2.6,2.5,5.7,4.2,9.5,5.1c0.2,0.1,0.7,0.1,1.2,0.2c0.5,0.1,1.1,0.2,1.7,0.3l0,0l2.7,0
		C115.8,154.4,116.5,154.3,117,154.3L117,154.3z"/>
</g>
</svg>
