<?xml version="1.0" encoding="utf-8"?>
<!-- Generator: Adobe Illustrator 17.1.0, SVG Export Plug-In . SVG Version: 6.00 Build 0)  -->
<!DOCTYPE svg PUBLIC "-//W3C//DTD SVG 1.1//EN" "http://www.w3.org/Graphics/SVG/1.1/DTD/svg11.dtd">
<svg version="1.1" id="Layer_1" xmlns="http://www.w3.org/2000/svg" xmlns:xlink="http://www.w3.org/1999/xlink" x="0px" y="0px"
	 viewBox="0 0 513 155.6" enable-background="new 0 0 513 155.6" xml:space="preserve">
<g>
	<path fill="#1A1E23" d="M50.4,109.9c-4.3-4.3-8.6-8.6-12.9-13c-4.5-4.5-7.1-10.1-7.8-16.6c-1-8.5,1.2-15.9,6.7-22.4
		c0.4-0.5,0.8-0.9,1.5-1.6l12.6-12.7V19.9C50.4,8.9,41.5,0,30.5,0S10.6,8.9,10.6,19.9v113.9c0,11,8.9,19.9,19.9,19.9
		s19.9-8.9,19.9-19.9V109.9z"/>
	<path fill="#1A1E23" d="M99.4,64.4l0.7-0.7c2.8-2.8,5.6-5.6,8.4-8.4c6.9-6.8,14-13.9,20.9-21c5.7-5.9,7.3-12.3,5-20.3
		c-2.4-8.4-10.1-14-19-14c-0.6,0-1.2,0-1.8,0.1c-5.1,0.4-9.1,2.3-12.6,5.9l-0.2,0.2C81.8,25,63,43.9,44.1,62.7
		c-0.4,0.4-0.7,0.7-0.9,1c-3.8,4.6-5.3,9.6-4.6,15.6c0.5,4.5,2.2,8.2,5.3,11.2c6,6.1,12.1,12.1,18.1,18.2l0.2,0.2l0.1-0.3
		c1.9-6.6,5.3-12.4,10.2-17.3C77.4,86.3,86.7,77,99.4,64.4z"/>
	<path fill="#2AE58B" d="M118.5,153.3c4.5-0.7,8.2-2.6,11.2-5.7c4.5-4.6,6.3-10.1,5.6-16.7c-0.5-4.5-2.3-8.3-5.5-11.6
		c-7.7-7.7-25.1-25.1-31.5-31.5l-4.8-4.8l-0.1,0.1c-9.2,9.1-13.9,13.9-16.2,16.2c-0.8,0.8-1.6,1.8-2.2,2.9c-0.8,1.6-1.3,3.2-1.6,4.9
		c-0.3,1.4-0.4,2.8-0.3,4.4c0,0.6,0.1,1.1,0.1,1.7c0.1,1.3,0.4,2.7,1,4.3c0.6,1.8,1.5,3.6,2.9,5.5c0.1,0.2,0.4,0.5,0.6,0.9l0,0l4,4
		c3.9,3.9,16.4,16.5,19.9,19.9c2.6,2.5,5.7,4.2,9.5,5.1c0.2,0.1,0.7,0.1,1.2,0.2c0.5,0.1,1.1,0.2,1.7,0.3l0,0l2.7,0
		C117.4,153.4,118,153.3,118.5,153.3L118.5,153.3z"/>
	<path fill="#1A1E23" d="M452.8,37.5c-15.5,0-29.7,6.2-40,17.4c-10,10.9-15.5,25.7-15.5,41.5v0.4c0,34,24.5,58.8,58.1,58.8
		c16.1,0,29.4-4.9,40.7-15l0.2-0.2c2.7-2.7,4.1-6.1,4.1-9.7c0-7.3-5.7-13.1-12.9-13.1c-4.2,0-6.4,1.5-8.2,2.9l-0.1,0.1
		c-7.1,5.9-14.5,8.6-23.3,8.6c-12.7,0-22.2-6.6-26.2-18.2l-0.9-2.6h63.4c8.3,0,14.7-6.6,14.7-14.9C506.9,66.3,487.9,37.5,452.8,37.5
		z M428.4,85.8l0.7-2.6c3.5-12.1,12.3-19.3,23.4-19.3c4.3,0,18.6,1.4,23,19.4l0.6,2.5H428.4z"/>
	<path fill="#1A1E23" d="M201,37.6c-33.8,0-60.2,25.9-60.2,59.1v0.4c0,32.8,26.3,58.5,59.8,58.5c33.9,0,60.4-25.9,60.4-58.9v-0.4
		C261.1,63.4,234.7,37.6,201,37.6z M226,97.1c0,6.8-2.2,13.2-6.3,18c-4.6,5.4-11,8.3-18.6,8.3c-14.3,0-25.1-11.5-25.1-26.7v-0.4
		c0-6.8,2.2-13.2,6.2-18.1c4.6-5.5,11-8.4,18.5-8.4c14.4,0,25.3,11.5,25.3,26.9V97.1z"/>
	<path fill="#1A1E23" d="M371.7,0.1c-9.8,0-17.5,7.7-17.5,17.5v25.2l-2.7-1c-7.1-2.7-14.5-4-22.2-4c-33.8,0-60.2,25.9-60.2,59.1v0.4
		c0,32.8,26.3,58.5,59.8,58.5c33.9,0,60.4-25.9,60.4-58.9V17.5C389.3,7.7,381.5,0.1,371.7,0.1z M354.2,97.1c0,6.8-2.2,13.2-6.3,18
		c-4.6,5.4-11,8.3-18.6,8.3c-14.3,0-25.1-11.5-25.1-26.7v-0.4c0-6.8,2.2-13.2,6.2-18.1c4.6-5.5,11-8.4,18.5-8.4
		c14.4,0,25.3,11.5,25.3,26.9V97.1z"/>
</g>
</svg>
