<?xml version="1.0" encoding="utf-8"?>
<!-- Generator: Adobe Illustrator 17.1.0, SVG Export Plug-In . SVG Version: 6.00 Build 0)  -->
<!DOCTYPE svg PUBLIC "-//W3C//DTD SVG 1.1//EN" "http://www.w3.org/Graphics/SVG/1.1/DTD/svg11.dtd">
<svg version="1.1" id="Layer_1" xmlns="http://www.w3.org/2000/svg" xmlns:xlink="http://www.w3.org/1999/xlink" x="0px" y="0px"
	 viewBox="0 0 2465 1379" enable-background="new 0 0 2465 1379" xml:space="preserve">
<g>
	<path fill="#1A1E23" d="M1024.1,721.6c-4.3-4.3-8.6-8.6-12.9-13c-4.5-4.5-7.1-10.1-7.8-16.6c-1-8.5,1.2-15.9,6.7-22.4
		c0.4-0.5,0.8-0.9,1.5-1.6l12.6-12.7v-23.8c0-11-8.9-19.9-19.9-19.9s-19.9,8.9-19.9,19.9v113.9c0,11,8.9,19.9,19.9,19.9
		s19.9-8.9,19.9-19.9V721.6z"/>
	<path fill="#1A1E23" d="M1073.1,676.1l0.7-0.7c2.8-2.8,5.6-5.6,8.4-8.4c6.9-6.8,14-13.9,20.9-21c5.7-5.9,7.3-12.3,5-20.3
		c-2.4-8.4-10.1-14-19-14c-0.6,0-1.2,0-1.8,0.1c-5.1,0.4-9.1,2.3-12.6,5.9l-0.2,0.2c-18.9,18.9-37.7,37.7-56.6,56.6
		c-0.4,0.4-0.7,0.7-0.9,1c-3.8,4.6-5.3,9.6-4.6,15.6c0.5,4.5,2.2,8.2,5.3,11.2c6,6.1,12.1,12.1,18.1,18.2l0.2,0.2l0.1-0.3
		c1.9-6.6,5.3-12.4,10.2-17.3C1051.1,698,1060.5,688.7,1073.1,676.1z"/>
	<path fill="#2AE58B" d="M1092.3,765c4.5-0.7,8.2-2.6,11.2-5.7c4.5-4.6,6.3-10.1,5.6-16.7c-0.5-4.5-2.3-8.3-5.5-11.6
		c-7.7-7.7-25.1-25.1-31.5-31.5l-4.8-4.8l-0.1,0.1c-9.2,9.1-13.9,13.9-16.2,16.2c-0.8,0.8-1.6,1.8-2.2,2.9c-0.8,1.6-1.3,3.2-1.6,4.9
		c-0.3,1.4-0.4,2.8-0.3,4.4c0,0.6,0.1,1.1,0.1,1.7c0.1,1.3,0.4,2.7,1,4.3c0.6,1.8,1.5,3.6,2.9,5.5c0.1,0.2,0.4,0.5,0.6,0.9l0,0l4,4
		c3.9,3.9,16.4,16.5,19.9,19.9c2.6,2.5,5.7,4.2,9.5,5.1c0.2,0.1,0.7,0.1,1.2,0.2c0.5,0.1,1.1,0.2,1.7,0.3l0,0l2.7,0
		C1091.1,765.1,1091.8,765,1092.3,765L1092.3,765z"/>
	<path fill="#1A1E23" d="M1426.5,649.2c-15.5,0-29.7,6.2-40,17.4c-10,10.9-15.5,25.7-15.5,41.5v0.4c0,34,24.5,58.8,58.1,58.8
		c16.1,0,29.4-4.9,40.7-15l0.2-0.2c2.7-2.7,4.1-6.1,4.1-9.7c0-7.3-5.7-13.1-12.9-13.1c-4.2,0-6.4,1.5-8.2,2.9l-0.1,0.1
		c-7.1,5.9-14.5,8.6-23.3,8.6c-12.7,0-22.2-6.6-26.2-18.2l-0.9-2.6h63.4c8.3,0,14.7-6.6,14.7-14.9
		C1480.6,678,1461.7,649.2,1426.5,649.2z M1402.2,697.5l0.7-2.6c3.5-12.1,12.3-19.3,23.4-19.3c4.3,0,18.6,1.4,23,19.4l0.6,2.5
		H1402.2z"/>
	<path fill="#1A1E23" d="M1174.8,649.3c-33.8,0-60.2,25.9-60.2,59.1v0.4c0,32.8,26.3,58.5,59.8,58.5c33.9,0,60.4-25.9,60.4-58.9V708
		C1234.8,675.1,1208.5,649.3,1174.8,649.3z M1199.7,708.8c0,6.8-2.2,13.2-6.3,18c-4.6,5.4-11,8.3-18.6,8.3
		c-14.3,0-25.1-11.5-25.1-26.7V708c0-6.8,2.2-13.2,6.2-18.1c4.6-5.5,11-8.4,18.5-8.4c14.4,0,25.3,11.5,25.3,26.9V708.8z"/>
	<path fill="#1A1E23" d="M1345.4,611.8c-9.8,0-17.5,7.7-17.5,17.5v25.2l-2.7-1c-7.1-2.7-14.5-4-22.2-4c-33.8,0-60.2,25.9-60.2,59.1
		v0.4c0,32.8,26.3,58.5,59.8,58.5c33.9,0,60.4-25.9,60.4-58.9v-79.2C1363.1,619.4,1355.3,611.8,1345.4,611.8z M1328,708.8
		c0,6.8-2.2,13.2-6.3,18c-4.6,5.4-11,8.3-18.6,8.3c-14.3,0-25.1-11.5-25.1-26.7V708c0-6.8,2.2-13.2,6.2-18.1
		c4.6-5.5,11-8.4,18.5-8.4c14.4,0,25.3,11.5,25.3,26.9V708.8z"/>
</g>
</svg>
