<?xml version="1.0" encoding="utf-8"?>
<!-- Generator: Adobe Illustrator 17.1.0, SVG Export Plug-In . SVG Version: 6.00 Build 0)  -->
<!DOCTYPE svg PUBLIC "-//W3C//DTD SVG 1.1//EN" "http://www.w3.org/Graphics/SVG/1.1/DTD/svg11.dtd">
<svg version="1.1" id="Layer_1" xmlns="http://www.w3.org/2000/svg" xmlns:xlink="http://www.w3.org/1999/xlink" x="0px" y="0px"
	 viewBox="0 0 2465 1379" enable-background="new 0 0 2465 1379" xml:space="preserve">
<g>
	<path fill="#1A1E23" d="M1192.5,748c-7.6-7.6-15.2-15.3-22.8-22.9c-7.9-7.9-12.5-17.8-13.8-29.3c-1.7-15,2.2-28,11.8-39.6
		c0.7-0.8,1.5-1.7,2.6-2.8l22.3-22.3V589c0-19.3-15.7-35.1-35.1-35.1s-35.1,15.7-35.1,35.1V790c0,19.3,15.7,35.1,35.1,35.1
		s35.1-15.7,35.1-35.1V748z"/>
	<path fill="#1A1E23" d="M1279,667.6l1.2-1.2c4.9-4.9,9.9-9.8,14.9-14.8c12.1-12.1,24.7-24.5,36.8-37c10.1-10.4,12.9-21.8,8.8-35.9
		c-4.3-14.8-17.8-24.8-33.5-24.8c-1,0-2.1,0-3.2,0.1c-8.9,0.8-16,4.1-22.3,10.4l-0.3,0.3c-33.3,33.3-66.6,66.6-99.9,99.9
		c-0.7,0.7-1.2,1.2-1.6,1.7c-6.8,8.2-9.4,16.9-8.2,27.6c0.9,8,3.9,14.4,9.3,19.8c10.6,10.7,21.3,21.4,32,32l0.3,0.3l0.1-0.5
		c3.3-11.6,9.4-21.9,18-30.6C1240.2,706.3,1256.6,689.8,1279,667.6z"/>
	<path fill="#2AE58B" d="M1312.7,824.5c7.9-1.2,14.4-4.5,19.7-10c7.9-8.2,11.2-17.8,9.9-29.4c-0.9-8-4.1-14.7-9.8-20.4
		c-13.6-13.6-44.2-44.3-55.6-55.6l-8.4-8.4l-0.2,0.2c-16.2,16.1-24.5,24.5-28.6,28.7c-1.5,1.5-2.7,3.2-3.9,5.2
		c-1.3,2.8-2.3,5.7-2.8,8.7c-0.5,2.5-0.6,5-0.6,7.8c0,1,0.1,2,0.2,3c0.2,2.3,0.8,4.7,1.7,7.5c1.1,3.2,2.7,6.3,5.1,9.6
		c0.3,0.4,0.6,0.9,1,1.6l0,0l7,7.1c6.8,6.8,29,29.1,35.1,35.1c4.5,4.5,10.1,7.5,16.7,9c0.4,0.1,1.2,0.2,2.2,0.4
		c0.9,0.1,1.9,0.3,3,0.5l0,0l4.8,0C1310.7,824.7,1311.9,824.6,1312.7,824.5L1312.7,824.5z"/>
</g>
</svg>
