<?xml version="1.0" encoding="utf-8"?>
<!-- Generator: Adobe Illustrator 17.1.0, SVG Export Plug-In . SVG Version: 6.00 Build 0)  -->
<!DOCTYPE svg PUBLIC "-//W3C//DTD SVG 1.1//EN" "http://www.w3.org/Graphics/SVG/1.1/DTD/svg11.dtd">
<svg version="1.1" xmlns="http://www.w3.org/2000/svg" xmlns:xlink="http://www.w3.org/1999/xlink" x="0px" y="0px"
	 viewBox="0 0 20.9 18.3" enable-background="new 0 0 20.9 18.3" xml:space="preserve">
<g id="BG">
</g>
<g id="Layer_1">
	<g>
		<path fill="#FFFFFF" d="M15,5.8c-2,0-3,1.2-3.5,2V6.1H7.7c0.1,1.1,0,11.9,0,11.9h3.8v-6.6c0-0.4,0-0.7,0.1-1
			c0.3-0.7,0.9-1.4,2-1.4c1.4,0,2,1.1,2,2.7V18h3.8v-6.8C19.4,7.5,17.5,5.8,15,5.8z"/>
		<rect x="1.5" y="6.1" fill="#FFFFFF" width="3.8" height="11.9"/>
		<path fill="#FFFFFF" d="M3.6,0.3c-1.3,0-2.2,0.9-2.2,2.1c0,1.1,0.8,2.1,2.1,2.1h0c1.3,0,2.2-0.9,2.2-2.1C5.8,1.2,5,0.3,3.6,0.3z"
			/>
	</g>
</g>
</svg>
