<?xml version="1.0" encoding="utf-8"?>
<!-- Generator: Adobe Illustrator 18.1.1, SVG Export Plug-In . SVG Version: 6.00 Build 0)  -->
<!DOCTYPE svg PUBLIC "-//W3C//DTD SVG 1.1//EN" "http://www.w3.org/Graphics/SVG/1.1/DTD/svg11.dtd">
<svg version="1.1" id="Layer_1" xmlns="http://www.w3.org/2000/svg" xmlns:xlink="http://www.w3.org/1999/xlink" x="0px" y="0px"
	 viewBox="0 0 960 560" enable-background="new 0 0 960 560" xml:space="preserve">
<g>
	<path fill="#FFFFFF" d="M94.3,340.1c-8-8-16.1-16.1-24.1-24.3c-8.4-8.4-13.3-18.9-14.6-31.1c-1.9-15.9,2.2-29.8,12.5-41.9
		c0.7-0.9,1.5-1.7,2.8-3L94.5,216v-44.4c-0.2-20.6-16.8-37.2-37.4-37.2s-37.2,16.7-37.2,37.2v213.1c0,20.6,16.7,37.2,37.2,37.2
		s37.2-16.7,37.2-37.2V340.1z"/>
	<path fill="#FFFFFF" d="M186,254.9l1.3-1.3c5.2-5.2,10.5-10.5,15.7-15.7c12.9-12.7,26.2-26,39.1-39.3c10.7-11,13.7-23,9.4-38
		c-4.5-15.7-18.9-26.2-35.6-26.2c-1.1,0-2.2,0-3.4,0.2c-9.5,0.7-17,4.3-23.6,11l-0.4,0.4c-35.6,35.2-70.7,70.5-106.1,105.7
		c-0.7,0.7-1.3,1.3-1.7,1.9c-7.1,8.6-9.9,18-8.6,29.2c0.9,8.4,4.1,15.3,9.9,21c11.2,11.4,22.6,22.6,33.9,34.1l0.4,0.4l0.2-0.6
		c3.6-12.4,9.9-23.2,19.1-32.4C144.8,295.9,162.2,278.5,186,254.9z"/>
	<path fill="#FFFFFF" d="M221.8,421.3c8.4-1.3,15.3-4.9,21-10.7c8.4-8.6,11.8-18.9,10.5-31.3c-0.9-8.4-4.3-15.5-10.3-21.7
		c-14.4-14.4-47-47-58.9-58.9l-9-9l-0.2,0.2c-17.2,17-26,26-30.3,30.3c-1.5,1.5-3,3.4-4.1,5.4c-1.5,3-2.4,6-3,9.2
		c-0.6,2.6-0.7,5.2-0.6,8.2c0,1.1,0.2,2.1,0.2,3.2c0.2,2.4,0.7,5.1,1.9,8c1.1,3.4,2.8,6.7,5.4,10.3c0.2,0.4,0.7,0.9,1.1,1.7l0,0
		l7.5,7.5c7.3,7.3,30.7,30.9,37.2,37.2c4.9,4.7,10.7,7.9,17.8,9.5c0.4,0.2,1.3,0.2,2.2,0.4s2.1,0.4,3.2,0.6l0,0h5.1
		C219.7,421.5,220.8,421.3,221.8,421.3L221.8,421.3z"/>
	<path fill="#FFFFFF" d="M847.3,204.6c-29,0-55.6,11.6-74.9,32.6c-18.7,20.4-29,48.1-29,77.7v0.7c0,63.6,45.8,110,108.7,110
		c30.1,0,55-9.2,76.2-28.1l0.4-0.4c5.1-5.1,7.7-11.4,7.7-18.2c0-13.7-10.7-24.5-24.1-24.5c-7.9,0-12,2.8-15.3,5.4l-0.2,0.2
		c-13.3,11-27.1,16.1-43.6,16.1c-23.8,0-41.5-12.4-49-34.1l-1.7-4.9h118.6c15.5,0,27.5-12.4,27.5-27.9
		C948.6,258.5,913,204.6,847.3,204.6z M801.7,295l1.3-4.9c6.5-22.6,23-36.1,43.8-36.1c8,0,34.8,2.6,43,36.3l1.1,4.7H801.7z"/>
	<path fill="#FFFFFF" d="M376.1,204.8c-63.3,0-112.7,48.5-112.7,110.6v0.7c0,61.4,49.2,109.5,111.9,109.5c63.4,0,113-48.5,113-110.2
		v-0.7C488.6,253.1,439.2,204.8,376.1,204.8z M422.9,316.1c0,12.7-4.1,24.7-11.8,33.7c-8.6,10.1-20.6,15.5-34.8,15.5
		c-26.8,0-47-21.5-47-50v-0.7c0-12.7,4.1-24.7,11.6-33.9c8.6-10.3,20.6-15.7,34.6-15.7c26.9,0,47.3,21.5,47.3,50.3L422.9,316.1
		L422.9,316.1z"/>
	<path fill="#FFFFFF" d="M695.6,134.6c-18.3,0-32.7,14.4-32.7,32.7v47.2l-5.1-1.9c-13.3-5.1-27.1-7.5-41.5-7.5
		c-63.3,0-112.7,48.5-112.7,110.6v0.7c0,61.4,49.2,109.5,111.9,109.5c63.4,0,113-48.5,113-110.2V167.2
		C728.5,148.8,713.9,134.6,695.6,134.6z M662.8,316.1c0,12.7-4.1,24.7-11.8,33.7c-8.6,10.1-20.6,15.5-34.8,15.5
		c-26.8,0-47-21.5-47-50v-0.7c0-12.7,4.1-24.7,11.6-33.9c8.6-10.3,20.6-15.7,34.6-15.7c26.9,0,47.3,21.5,47.3,50.3V316.1z"/>
</g>
</svg>
