<?xml version="1.0" encoding="utf-8"?>
<!-- Generator: Adobe Illustrator 18.0.0, SVG Export Plug-In . SVG Version: 6.00 Build 0)  -->
<!DOCTYPE svg PUBLIC "-//W3C//DTD SVG 1.1//EN" "http://www.w3.org/Graphics/SVG/1.1/DTD/svg11.dtd">
<svg version="1.1" id="Layer_1" xmlns="http://www.w3.org/2000/svg" xmlns:xlink="http://www.w3.org/1999/xlink" x="0px" y="0px"
	 viewBox="0 0 960 560" enable-background="new 0 0 960 560" xml:space="preserve">
<g>
	<path fill="#FFFFFF" d="M479.2,265.2L707,34.3C730.4,12.5,758.4,0,792.8,0C808.4,0,824,3.1,838,9.4c14,6.2,28.1,15.6,39,26.5
		s20.3,23.4,28.1,37.4c6.2,14,9.4,29.6,9.4,46.8c0,34.3-12.5,60.8-39,84.2l-312,315.1c-26.5,26.5-53,39-84.2,39s-59.3-12.5-85.8-39
		L78.3,204.3C54.9,180.9,44,154.4,44,124.8c0-34.3,10.9-62.4,34.3-87.4C100.2,12.5,128.2,0,164.1,0c31.2,0,59.3,10.9,85.8,34.3
		L479.2,265.2z"/>
</g>
</svg>
