<?xml version="1.0" encoding="utf-8"?>
<!-- Generator: Adobe Illustrator 18.0.0, SVG Export Plug-In . SVG Version: 6.00 Build 0)  -->
<!DOCTYPE svg PUBLIC "-//W3C//DTD SVG 1.1//EN" "http://www.w3.org/Graphics/SVG/1.1/DTD/svg11.dtd">
<svg version="1.1" id="Layer_1" xmlns="http://www.w3.org/2000/svg" xmlns:xlink="http://www.w3.org/1999/xlink" x="0px" y="0px"
	 viewBox="0 0 1200 800" enable-background="new 0 0 1200 800" xml:space="preserve">
<g>
	<path d="M599,381.5L883.8,92.9C913,65.6,948,50,991,50c19.5,0,39,3.9,56.5,11.8c17.5,7.8,35.1,19.5,48.8,33.1s25.4,29.2,35.1,46.8
		c7.8,17.5,11.8,37,11.8,58.5c0,42.9-15.6,76-48.8,105.2l-390,393.9c-33.1,33.1-66.2,48.8-105.2,48.8s-74.1-15.6-107.2-48.8
		l-394-393.9C68.6,276.1,55,243,55,206c0-42.9,13.6-78,42.9-109.2C125.2,65.6,160.2,50,205.1,50c39,0,74.1,13.6,107.2,42.9
		L599,381.5z"/>
</g>
</svg>
