<?xml version="1.0" encoding="utf-8"?>
<!-- Generator: Adobe Illustrator 17.1.0, SVG Export Plug-In . SVG Version: 6.00 Build 0)  -->
<!DOCTYPE svg PUBLIC "-//W3C//DTD SVG 1.1//EN" "http://www.w3.org/Graphics/SVG/1.1/DTD/svg11.dtd">
<svg version="1.1" id="Layer_1" xmlns="http://www.w3.org/2000/svg" xmlns:xlink="http://www.w3.org/1999/xlink" x="0px" y="0px"
	 viewBox="0 0 144 144" enable-background="new 0 0 144 144" xml:space="preserve">
<path fill="#FFFFFF" d="M74.8,99.3V74.2h11.1V63.1H74.8v-4.4c0-1.8,1.1-3,2.1-3h9V44.7h-9c-6.9,0-12.5,6.7-12.5,14.2v4.3h-8.1v11.1
	h8.1v25.1H74.8z"/>
<g>
	<path fill="#FFFFFF" d="M72,143.8c-39.6,0-71.8-32.2-71.8-71.8S32.4,0.2,72,0.2c39.6,0,71.8,32.2,71.8,71.8S111.6,143.8,72,143.8z
		 M72,8.4C36.9,8.4,8.4,36.9,8.4,72s28.5,63.6,63.6,63.6c35.1,0,63.6-28.5,63.6-63.6S107.1,8.4,72,8.4z"/>
</g>
</svg>
