<?xml version="1.0" encoding="utf-8"?>
<!-- Generator: Adobe Illustrator 17.1.0, SVG Export Plug-In . SVG Version: 6.00 Build 0)  -->
<!DOCTYPE svg PUBLIC "-//W3C//DTD SVG 1.1//EN" "http://www.w3.org/Graphics/SVG/1.1/DTD/svg11.dtd">
<svg version="1.1" id="Layer_1" xmlns="http://www.w3.org/2000/svg" xmlns:xlink="http://www.w3.org/1999/xlink" x="0px" y="0px"
	 viewBox="0 0 144 144" enable-background="new 0 0 144 144" xml:space="preserve">
<g>
	<path fill="#FFFFFF" d="M74.8,93V73.7h8.5v-8.5h-8.5v-3.4c0-1.4,0.9-2.3,1.6-2.3h6.9V51h-6.9c-5.3,0-9.6,5.2-9.6,10.9v3.3h-6.3v8.5
		h6.3V93H74.8z"/>
	<g>
		<path fill="#FFFFFF" d="M72,143.8c-39.6,0-71.8-32.2-71.8-71.8S32.4,0.2,72,0.2c39.6,0,71.8,32.2,71.8,71.8S111.6,143.8,72,143.8z
			 M72,5.4C35.3,5.4,5.4,35.3,5.4,72s29.9,66.6,66.6,66.6c36.7,0,66.6-29.9,66.6-66.6S108.7,5.4,72,5.4z"/>
	</g>
</g>
</svg>
