<?xml version="1.0" encoding="utf-8"?>
<!-- Generator: Adobe Illustrator 18.1.1, SVG Export Plug-In . SVG Version: 6.00 Build 0)  -->
<!DOCTYPE svg PUBLIC "-//W3C//DTD SVG 1.1//EN" "http://www.w3.org/Graphics/SVG/1.1/DTD/svg11.dtd">
<svg version="1.1" id="Layer_1" xmlns="http://www.w3.org/2000/svg" xmlns:xlink="http://www.w3.org/1999/xlink" x="0px" y="0px"
	 viewBox="337.1 -142.6 285.1 444.4" enable-background="new 337.1 -142.6 285.1 444.4" xml:space="preserve">
<g>
	<path fill="#2AE58B" d="M472.5,79.6L354.6-36.7c-11.1-11.9-17.6-26.2-17.6-43.8c0-7.9,1.6-15.9,4.8-23c3.2-7.1,8-14.3,13.5-19.9
		c5.5-5.6,11.9-10.4,19.1-14.3c7.1-3.2,15.1-4.8,23.9-4.8c17.5,0,31,6.4,42.9,20L602.2,36.6c13.5,13.5,20,27,20,42.9
		s-6.4,30.3-20,43.8L441.4,284.2c-12,12-25.5,17.6-40.6,17.6c-17.5,0-31.8-5.5-44.6-17.5c-12.7-11.1-19.1-25.4-19.1-43.8
		c0-15.9,5.5-30.3,17.5-43.8L472.5,79.6z"/>
</g>
</svg>
