<?xml version="1.0" encoding="utf-8"?>
<!-- Generator: Adobe Illustrator 17.1.0, SVG Export Plug-In . SVG Version: 6.00 Build 0)  -->
<!DOCTYPE svg PUBLIC "-//W3C//DTD SVG 1.1//EN" "http://www.w3.org/Graphics/SVG/1.1/DTD/svg11.dtd">
<svg version="1.1" id="Layer_1" xmlns="http://www.w3.org/2000/svg" xmlns:xlink="http://www.w3.org/1999/xlink" x="0px" y="0px"
	 viewBox="0 0 144 144" enable-background="new 0 0 144 144" xml:space="preserve">
<path id="twitter_button_1_" fill="#FFFFFF" d="M96,73.2c-5.1,20.8-39.6,29.7-55.5,8c6.1,5.8,16.7,6.3,23.4-0.6
	c-3.9,0.6-6.8-3.3-2-5.4c-4.3,0.5-6.8-1.8-7.8-3.8c1-1.1,2.1-1.6,4.3-1.7c-4.8-1.1-6.5-3.5-7.1-6.3c1.3-0.3,3-0.6,3.9-0.5
	c-4.2-2.2-5.6-5.5-5.4-7.9c7.5,2.8,12.2,5,16.2,7.1c1.4,0.8,3,2.1,4.8,3.8c2.3-6,5.1-12.2,9.9-15.2c-0.1,0.7-0.4,1.3-0.9,1.9
	c1.4-1.2,3.1-2.1,4.9-2.3c-0.2,1.3-2.1,2.1-3.3,2.5c0.9-0.3,5.6-2.4,6.1-1.2c0.6,1.4-3.3,2-3.9,2.2c-0.5,0.2-1,0.3-1.5,0.5
	c6-0.6,11.7,4.3,13.4,10.5c0.1,0.4,0.2,0.9,0.3,1.4c2.2,0.8,6.2,0,7.4-0.8c-0.9,2.2-3.3,3.8-6.9,4.1c1.7,0.7,4.9,1.1,7.1,0.7
	C102.1,71.8,99.8,73.2,96,73.2z"/>
<g>
	<path fill="#FFFFFF" d="M72,143.8c-39.6,0-71.8-32.2-71.8-71.8S32.4,0.2,72,0.2c39.6,0,71.8,32.2,71.8,71.8S111.6,143.8,72,143.8z
		 M72,8.4C36.9,8.4,8.4,36.9,8.4,72s28.5,63.6,63.6,63.6c35.1,0,63.6-28.5,63.6-63.6S107.1,8.4,72,8.4z"/>
</g>
</svg>
