<?xml version="1.0" encoding="utf-8"?>
<!-- Generator: Adobe Illustrator 17.1.0, SVG Export Plug-In . SVG Version: 6.00 Build 0)  -->
<!DOCTYPE svg PUBLIC "-//W3C//DTD SVG 1.1//EN" "http://www.w3.org/Graphics/SVG/1.1/DTD/svg11.dtd">
<svg version="1.1" id="Layer_1" xmlns="http://www.w3.org/2000/svg" xmlns:xlink="http://www.w3.org/1999/xlink" x="0px" y="0px"
	 viewBox="0 0 144 144" enable-background="new 0 0 144 144" xml:space="preserve">
<g>
	<path id="twitter_button_1_" fill="#FFFFFF" d="M90.5,72.9c-4,16-30.5,22.8-42.7,6.2c4.7,4.5,12.8,4.9,18-0.5
		c-3,0.4-5.2-2.5-1.5-4.1c-3.3,0.4-5.2-1.4-6-2.9c0.8-0.8,1.6-1.2,3.3-1.3c-3.7-0.9-5-2.7-5.4-4.8c1-0.2,2.3-0.5,3-0.4
		c-3.2-1.7-4.3-4.2-4.1-6.1c5.7,2.1,9.4,3.8,12.4,5.5c1.1,0.6,2.3,1.6,3.7,3c1.7-4.6,3.9-9.4,7.6-11.7c-0.1,0.5-0.3,1-0.7,1.4
		c1-0.9,2.4-1.6,3.8-1.8c-0.2,1-1.7,1.6-2.6,2c0.7-0.2,4.3-1.8,4.7-0.9c0.5,1.1-2.5,1.5-3,1.7c-0.4,0.1-0.8,0.3-1.1,0.4
		c4.6-0.5,9,3.3,10.3,8c0.1,0.3,0.2,0.7,0.3,1.1c1.7,0.6,4.7,0,5.7-0.6c-0.7,1.7-2.6,2.9-5.3,3.1c1.3,0.5,3.8,0.8,5.5,0.6
		C95.2,71.9,93.4,72.9,90.5,72.9z"/>
	<g>
		<path fill="#FFFFFF" d="M72,143.8c-39.6,0-71.8-32.2-71.8-71.8S32.4,0.2,72,0.2c39.6,0,71.8,32.2,71.8,71.8S111.6,143.8,72,143.8z
			 M72,5.4C35.3,5.4,5.4,35.3,5.4,72s29.9,66.6,66.6,66.6c36.7,0,66.6-29.9,66.6-66.6S108.7,5.4,72,5.4z"/>
	</g>
</g>
</svg>
