<?xml version="1.0" encoding="utf-8"?>
<!-- Generator: Adobe Illustrator 18.1.1, SVG Export Plug-In . SVG Version: 6.00 Build 0)  -->
<!DOCTYPE svg PUBLIC "-//W3C//DTD SVG 1.1//EN" "http://www.w3.org/Graphics/SVG/1.1/DTD/svg11.dtd">
<svg version="1.1" id="Layer_1" xmlns="http://www.w3.org/2000/svg" xmlns:xlink="http://www.w3.org/1999/xlink" x="0px" y="0px"
	 viewBox="0 0 512 512" enable-background="new 0 0 512 512" xml:space="preserve">
<path id="twitter_button_1_" fill="#FFFFFF" d="M341.3,260.3c-18.1,74-140.8,105.6-197.3,28.4c21.7,20.6,59.4,22.4,83.2-2.1
	c-13.9,2.1-24.2-11.7-7.1-19.2c-15.3,1.8-24.2-6.4-27.7-13.5c3.6-3.9,7.5-5.7,15.3-6c-17.1-3.9-23.1-12.4-25.2-22.4
	c4.6-1.1,10.7-2.1,13.9-1.8c-14.9-7.8-19.9-19.6-19.2-28.1c26.7,10,43.4,17.8,57.6,25.2c5,2.8,10.7,7.5,17.1,13.5
	c8.2-21.3,18.1-43.4,35.2-54c-0.4,2.5-1.4,4.6-3.2,6.8c5-4.3,11-7.5,17.4-8.2c-0.7,4.6-7.5,7.5-11.7,8.9c3.2-1.1,19.9-8.5,21.7-4.3
	c2.1,5-11.7,7.1-13.9,7.8c-1.8,0.7-3.6,1.1-5.3,1.8c21.3-2.1,41.6,15.3,47.6,37.3c0.4,1.4,0.7,3.2,1.1,5c7.8,2.8,22,0,26.3-2.8
	c-3.2,7.8-11.7,13.5-24.5,14.6c6,2.5,17.4,3.9,25.2,2.5C363,255.3,354.8,260.3,341.3,260.3z"/>
</svg>
