<?xml version="1.0" encoding="utf-8"?>
<!-- Generator: Adobe Illustrator 17.1.0, SVG Export Plug-In . SVG Version: 6.00 Build 0)  -->
<!DOCTYPE svg PUBLIC "-//W3C//DTD SVG 1.1//EN" "http://www.w3.org/Graphics/SVG/1.1/DTD/svg11.dtd">
<svg version="1.1" xmlns="http://www.w3.org/2000/svg" xmlns:xlink="http://www.w3.org/1999/xlink" x="0px" y="0px"
	 viewBox="0 0 193.1 58.7" enable-background="new 0 0 193.1 58.7" xml:space="preserve">
<g id="BG">
</g>
<g id="Layer_1">
	<g>
		<g>
			<g>
				<path fill="#FFFFFF" d="M185.4,58.7H7.7C3.5,58.7,0,55.2,0,51V7.7C0,3.5,3.5,0,7.7,0h177.7c4.3,0,7.7,3.5,7.7,7.7V51
					c0,2.1-0.8,4-2.3,5.5C189.4,57.9,187.5,58.7,185.4,58.7z M7.7,0.8c-3.8,0-6.9,3.1-6.9,6.9V51c0,3.8,3.1,6.9,6.9,6.9h177.7
					c1.8,0,3.6-0.7,4.9-2c1.3-1.3,2-3,2-4.9V7.7c0-3.8-3.1-6.9-6.9-6.9H7.7z"/>
			</g>
		</g>
		<g>
			<g>
				<path fill="#FFFFFF" d="M43.7,29c0-4.6,3.7-6.8,3.9-6.9c-2.1-3.1-5.5-3.5-6.6-3.6c-2.8-0.3-5.5,1.7-6.9,1.7
					c-1.4,0-3.6-1.6-6-1.6c-3,0-5.9,1.8-7.4,4.5c-3.2,5.6-0.8,13.7,2.3,18.2c1.5,2.2,3.3,4.7,5.7,4.6c2.3-0.1,3.2-1.5,5.9-1.5
					c2.8,0,3.6,1.5,6,1.4c2.5,0,4-2.2,5.5-4.4c1.8-2.5,2.5-5,2.5-5.1C48.5,36.3,43.7,34.5,43.7,29"/>
			</g>
			<g>
				<path fill="#FFFFFF" d="M39.2,15.6c1.2-1.5,2.1-3.7,1.8-5.8c-1.8,0.1-4,1.2-5.3,2.8c-1.1,1.3-2.2,3.5-1.9,5.6
					C35.8,18.3,37.9,17.1,39.2,15.6"/>
			</g>
			<g>
				<path fill="#FFFFFF" d="M77,45.6h-3.2l-1.8-5.5h-6.1l-1.7,5.5h-3.1l6.1-18.8h3.7L77,45.6z M71.5,37.8l-1.6-4.9
					c-0.2-0.5-0.5-1.7-1-3.6h-0.1c-0.2,0.8-0.5,2-0.9,3.6l-1.6,4.9H71.5z"/>
			</g>
			<g>
				<path fill="#FFFFFF" d="M92.6,38.7c0,2.3-0.6,4.1-1.9,5.5c-1.1,1.2-2.5,1.8-4.2,1.8c-1.8,0-3.1-0.6-3.9-1.9v7.1h-3V36.5
					c0-1.5,0-2.9-0.1-4.5h2.7l0.2,2.2h0.1c1-1.6,2.5-2.4,4.6-2.4c1.6,0,2.9,0.6,4,1.9C92.1,34.9,92.6,36.6,92.6,38.7 M89.5,38.8
					c0-1.3-0.3-2.4-0.9-3.3c-0.7-0.9-1.5-1.3-2.6-1.3c-0.7,0-1.4,0.2-2,0.7c-0.6,0.5-1,1.1-1.2,1.9c-0.1,0.4-0.1,0.7-0.1,0.9v2.3
					c0,1,0.3,1.8,0.9,2.5c0.6,0.7,1.4,1,2.4,1c1.1,0,2-0.4,2.7-1.3C89.2,41.4,89.5,40.2,89.5,38.8"/>
			</g>
			<g>
				<path fill="#FFFFFF" d="M108.2,38.7c0,2.3-0.6,4.1-1.9,5.5c-1.1,1.2-2.5,1.8-4.2,1.8c-1.8,0-3.1-0.6-3.9-1.9v7.1h-3V36.5
					c0-1.5,0-2.9-0.1-4.5h2.7l0.2,2.2H98c1-1.6,2.5-2.4,4.6-2.4c1.6,0,2.9,0.6,4,1.9C107.7,34.9,108.2,36.6,108.2,38.7 M105.2,38.8
					c0-1.3-0.3-2.4-0.9-3.3c-0.7-0.9-1.5-1.3-2.6-1.3c-0.7,0-1.4,0.2-2,0.7c-0.6,0.5-1,1.1-1.2,1.9c-0.1,0.4-0.1,0.7-0.1,0.9v2.3
					c0,1,0.3,1.8,0.9,2.5c0.6,0.7,1.4,1,2.4,1c1.1,0,2-0.4,2.7-1.3C104.8,41.4,105.2,40.2,105.2,38.8"/>
			</g>
			<g>
				<path fill="#FFFFFF" d="M125.7,40.4c0,1.6-0.6,2.9-1.7,3.9c-1.2,1.1-2.9,1.6-5.1,1.6c-2,0-3.7-0.4-4.9-1.2l0.7-2.5
					c1.3,0.8,2.8,1.2,4.4,1.2c1.1,0,2-0.3,2.7-0.8c0.6-0.5,1-1.2,1-2.1c0-0.8-0.3-1.4-0.8-1.9c-0.5-0.5-1.4-1-2.6-1.5
					c-3.3-1.2-5-3-5-5.4c0-1.5,0.6-2.8,1.7-3.8c1.2-1,2.7-1.5,4.6-1.5c1.7,0,3.1,0.3,4.3,0.9l-0.8,2.5c-1.1-0.6-2.3-0.9-3.6-0.9
					c-1.1,0-1.9,0.3-2.5,0.8c-0.5,0.5-0.8,1-0.8,1.7c0,0.7,0.3,1.4,0.9,1.8c0.5,0.4,1.4,0.9,2.7,1.5c1.6,0.7,2.8,1.4,3.6,2.3
					C125.3,38,125.7,39.1,125.7,40.4"/>
			</g>
			<g>
				<path fill="#FFFFFF" d="M135.7,34.3h-3.3v6.6c0,1.7,0.6,2.5,1.8,2.5c0.5,0,1,0,1.3-0.1l0.1,2.3c-0.6,0.2-1.4,0.3-2.3,0.3
					c-1.2,0-2.1-0.4-2.8-1.1c-0.7-0.7-1-1.9-1-3.7v-6.8h-2V32h2v-2.5l3-0.9V32h3.3V34.3z"/>
			</g>
			<g>
				<path fill="#FFFFFF" d="M150.7,38.7c0,2.1-0.6,3.8-1.8,5.1c-1.2,1.4-2.9,2.1-5,2.1c-2,0-3.6-0.7-4.8-2c-1.2-1.3-1.8-3-1.8-5
					c0-2.1,0.6-3.8,1.8-5.2c1.2-1.3,2.9-2,4.9-2c2,0,3.6,0.7,4.8,2C150.1,35,150.7,36.7,150.7,38.7 M147.6,38.8
					c0-1.2-0.3-2.3-0.8-3.2c-0.6-1.1-1.5-1.6-2.7-1.6c-1.2,0-2.1,0.5-2.8,1.6c-0.5,0.9-0.8,2-0.8,3.3c0,1.2,0.3,2.3,0.8,3.2
					c0.7,1.1,1.6,1.6,2.7,1.6c1.2,0,2.1-0.6,2.7-1.6C147.3,41.1,147.6,40.1,147.6,38.8"/>
			</g>
			<g>
				<path fill="#FFFFFF" d="M160.5,34.7c-0.3-0.1-0.6-0.1-1-0.1c-1.1,0-1.9,0.4-2.5,1.2c-0.5,0.7-0.8,1.6-0.8,2.7v7.1h-3v-9.3
					c0-1.6,0-3-0.1-4.3h2.6l0.1,2.6h0.1c0.3-0.9,0.8-1.6,1.5-2.2c0.7-0.5,1.4-0.7,2.2-0.7c0.3,0,0.5,0,0.8,0.1L160.5,34.7z"/>
			</g>
			<g>
				<path fill="#FFFFFF" d="M174,38.2c0,0.5,0,1-0.1,1.4h-9.1c0,1.3,0.5,2.4,1.3,3.1c0.8,0.6,1.7,1,3,1c1.3,0,2.6-0.2,3.7-0.6
					l0.5,2.1c-1.3,0.6-2.8,0.8-4.6,0.8c-2.1,0-3.8-0.6-5-1.9c-1.2-1.2-1.8-2.9-1.8-5c0-2,0.6-3.8,1.7-5.1c1.2-1.5,2.8-2.2,4.8-2.2
					c2,0,3.4,0.7,4.4,2.2C173.6,35.1,174,36.5,174,38.2 M171.2,37.4c0-0.9-0.2-1.7-0.6-2.3c-0.5-0.8-1.3-1.3-2.4-1.3
					c-1,0-1.8,0.4-2.4,1.2c-0.5,0.7-0.8,1.4-0.9,2.4H171.2z"/>
			</g>
			<g>
				<path fill="#FFFFFF" d="M70.1,20.1h-1.6l-0.9-2.7h-3l-0.8,2.7h-1.5l3-9.3h1.8L70.1,20.1z M67.4,16.2l-0.8-2.4
					c-0.1-0.2-0.2-0.8-0.5-1.7h0c-0.1,0.4-0.2,1-0.4,1.7l-0.8,2.4H67.4z"/>
			</g>
			<g>
				<path fill="#FFFFFF" d="M77.5,13.4L75,20.1h-1.4l-2.4-6.7h1.6l1.1,3.5c0.2,0.6,0.4,1.2,0.5,1.7h0c0.1-0.5,0.3-1,0.5-1.7l1.1-3.5
					H77.5z"/>
			</g>
			<g>
				<path fill="#FFFFFF" d="M84.3,20.1h-1.3l-0.1-0.8h0c-0.5,0.6-1.1,0.9-1.9,0.9c-0.6,0-1.1-0.2-1.5-0.6c-0.3-0.4-0.5-0.8-0.5-1.4
					c0-0.8,0.3-1.4,1-1.9c0.7-0.4,1.6-0.6,2.9-0.6v-0.1c0-0.9-0.5-1.3-1.4-1.3c-0.7,0-1.2,0.2-1.7,0.5l-0.3-1
					c0.6-0.4,1.4-0.6,2.3-0.6c1.8,0,2.6,0.9,2.6,2.8v2.5C84.2,19.1,84.2,19.7,84.3,20.1 M82.7,17.8v-1c-1.6,0-2.5,0.4-2.5,1.3
					c0,0.3,0.1,0.6,0.3,0.8c0.2,0.2,0.4,0.3,0.7,0.3c0.3,0,0.6-0.1,0.9-0.3c0.3-0.2,0.4-0.5,0.5-0.8L82.7,17.8z"/>
			</g>
			<g>
				<path fill="#FFFFFF" d="M88.4,11.4c0,0.3-0.1,0.5-0.3,0.6c-0.2,0.2-0.4,0.2-0.7,0.2c-0.2,0-0.5-0.1-0.6-0.3
					c-0.2-0.2-0.3-0.4-0.3-0.6c0-0.3,0.1-0.5,0.3-0.6c0.2-0.2,0.4-0.2,0.6-0.2c0.3,0,0.5,0.1,0.6,0.2C88.3,10.9,88.4,11.1,88.4,11.4
					 M88.2,20.1h-1.5v-6.7h1.5V20.1z"/>
			</g>
			<g>
				<rect x="90.9" y="10.3" fill="#FFFFFF" width="1.5" height="9.7"/>
			</g>
			<g>
				<path fill="#FFFFFF" d="M100,20.1h-1.3l-0.1-0.8h0c-0.5,0.6-1.1,0.9-2,0.9c-0.6,0-1.1-0.2-1.5-0.6c-0.3-0.4-0.5-0.8-0.5-1.4
					c0-0.8,0.3-1.4,1-1.9c0.7-0.4,1.6-0.6,2.9-0.6v-0.1c0-0.9-0.5-1.3-1.4-1.3c-0.7,0-1.2,0.2-1.7,0.5l-0.3-1
					c0.6-0.4,1.4-0.6,2.3-0.6c1.8,0,2.6,0.9,2.6,2.8v2.5C99.9,19.1,99.9,19.7,100,20.1 M98.5,17.8v-1c-1.6,0-2.5,0.4-2.5,1.3
					c0,0.3,0.1,0.6,0.3,0.8c0.2,0.2,0.4,0.3,0.7,0.3c0.3,0,0.6-0.1,0.9-0.3c0.3-0.2,0.4-0.5,0.5-0.8L98.5,17.8z"/>
			</g>
			<g>
				<path fill="#FFFFFF" d="M108.9,16.6c0,1.1-0.3,2-0.9,2.7c-0.6,0.6-1.2,0.9-2,0.9c-1,0-1.7-0.4-2.1-1.2h0l-0.1,1h-1.3
					c0-0.5,0.1-1.1,0.1-1.8v-7.9h1.5v4c0.4-0.7,1.2-1.1,2.1-1.1c0.8,0,1.5,0.3,2,0.9C108.6,14.8,108.9,15.6,108.9,16.6 M107.3,16.7
					c0-0.7-0.1-1.2-0.4-1.6c-0.3-0.4-0.8-0.7-1.3-0.7c-0.4,0-0.7,0.1-1,0.4c-0.3,0.2-0.5,0.6-0.6,0.9c0,0.2-0.1,0.3-0.1,0.5v1.2
					c0,0.5,0.1,0.9,0.5,1.2c0.3,0.3,0.7,0.5,1.2,0.5c0.6,0,1-0.2,1.3-0.6C107.2,18,107.3,17.4,107.3,16.7"/>
			</g>
			<g>
				<rect x="111.1" y="10.3" fill="#FFFFFF" width="1.5" height="9.7"/>
			</g>
			<g>
				<path fill="#FFFFFF" d="M120.7,16.4c0,0.3,0,0.5-0.1,0.7h-4.5c0,0.7,0.2,1.2,0.6,1.5c0.4,0.3,0.9,0.5,1.5,0.5
					c0.7,0,1.3-0.1,1.8-0.3l0.2,1c-0.6,0.3-1.4,0.4-2.2,0.4c-1,0-1.8-0.3-2.4-0.9c-0.6-0.6-0.9-1.4-0.9-2.5c0-1,0.3-1.8,0.8-2.5
					c0.6-0.7,1.4-1.1,2.3-1.1c1,0,1.7,0.4,2.2,1.1C120.5,14.9,120.7,15.6,120.7,16.4 M119.3,16c0-0.4-0.1-0.8-0.3-1.1
					c-0.3-0.4-0.7-0.6-1.2-0.6c-0.5,0-0.9,0.2-1.2,0.6c-0.2,0.3-0.4,0.7-0.4,1.2H119.3z"/>
			</g>
			<g>
				<path fill="#FFFFFF" d="M132.9,16.7c0,1-0.3,1.9-0.9,2.5c-0.6,0.7-1.4,1-2.4,1c-1,0-1.8-0.3-2.3-1c-0.6-0.6-0.9-1.5-0.9-2.5
					c0-1,0.3-1.9,0.9-2.5c0.6-0.7,1.4-1,2.4-1c1,0,1.8,0.3,2.4,1C132.7,14.8,132.9,15.7,132.9,16.7 M131.4,16.7
					c0-0.6-0.1-1.1-0.4-1.6c-0.3-0.5-0.8-0.8-1.3-0.8c-0.6,0-1.1,0.3-1.4,0.8c-0.3,0.4-0.4,1-0.4,1.6c0,0.6,0.1,1.1,0.4,1.6
					c0.3,0.5,0.8,0.8,1.3,0.8c0.6,0,1-0.3,1.3-0.8C131.3,17.8,131.4,17.3,131.4,16.7"/>
			</g>
			<g>
				<path fill="#FFFFFF" d="M140.9,20.1h-1.5v-3.8c0-1.2-0.4-1.8-1.3-1.8c-0.4,0-0.8,0.2-1.1,0.5c-0.3,0.3-0.4,0.7-0.4,1.1v4h-1.5
					v-4.8c0-0.6,0-1.2-0.1-1.9h1.3l0.1,1h0c0.2-0.3,0.4-0.6,0.8-0.8c0.4-0.2,0.9-0.4,1.3-0.4c0.6,0,1.1,0.2,1.6,0.6
					c0.5,0.5,0.8,1.2,0.8,2.2V20.1z"/>
			</g>
			<g>
				<path fill="#FFFFFF" d="M150.6,14.5H149v3.2c0,0.8,0.3,1.2,0.9,1.2c0.3,0,0.5,0,0.7-0.1l0,1.1c-0.3,0.1-0.7,0.2-1.2,0.2
					c-0.6,0-1-0.2-1.4-0.5c-0.3-0.4-0.5-1-0.5-1.8v-3.4h-1v-1.1h1v-1.2l1.5-0.4v1.7h1.6V14.5z"/>
			</g>
			<g>
				<path fill="#FFFFFF" d="M158.5,20.1H157v-3.8c0-1.2-0.5-1.8-1.3-1.8c-0.7,0-1.2,0.3-1.4,1c0,0.1-0.1,0.3-0.1,0.5v4h-1.5v-9.7
					h1.5v4h0c0.5-0.7,1.1-1.1,2-1.1c0.6,0,1.1,0.2,1.5,0.6c0.5,0.5,0.8,1.3,0.8,2.2V20.1z"/>
			</g>
			<g>
				<path fill="#FFFFFF" d="M166.1,16.4c0,0.3,0,0.5-0.1,0.7h-4.4c0,0.7,0.2,1.2,0.6,1.5c0.4,0.3,0.9,0.5,1.5,0.5
					c0.7,0,1.3-0.1,1.8-0.3l0.2,1c-0.6,0.3-1.4,0.4-2.2,0.4c-1,0-1.8-0.3-2.4-0.9c-0.6-0.6-0.9-1.4-0.9-2.5c0-1,0.3-1.8,0.8-2.5
					c0.6-0.7,1.4-1.1,2.3-1.1c1,0,1.7,0.4,2.2,1.1C165.9,14.9,166.1,15.6,166.1,16.4 M164.7,16c0-0.4-0.1-0.8-0.3-1.1
					c-0.3-0.4-0.7-0.6-1.2-0.6c-0.5,0-0.9,0.2-1.2,0.6c-0.2,0.3-0.4,0.7-0.4,1.2H164.7z"/>
			</g>
		</g>
	</g>
</g>
</svg>
