<?xml version="1.0" encoding="utf-8"?>
<!-- Generator: Adobe Illustrator 17.1.0, SVG Export Plug-In . SVG Version: 6.00 Build 0)  -->
<!DOCTYPE svg PUBLIC "-//W3C//DTD SVG 1.1//EN" "http://www.w3.org/Graphics/SVG/1.1/DTD/svg11.dtd">
<svg version="1.1" xmlns="http://www.w3.org/2000/svg" xmlns:xlink="http://www.w3.org/1999/xlink" x="0px" y="0px"
	 viewBox="0 0 20.9 18.3" enable-background="new 0 0 20.9 18.3" xml:space="preserve">
<g id="BG">
</g>
<g id="Layer_1">
	<path fill="#FFFFFF" d="M20.9,2.2c-0.4,0.2-1.4,0.6-2.4,0.7c0.6-0.4,1.6-1.6,1.8-2.5c-0.6,0.4-2,1-2.7,1c0,0,0,0,0,0
		C16.8,0.6,15.7,0,14.5,0c-2.4,0-4.3,2.1-4.3,4.6c0,0.4,0,0.7,0.1,1h0c-3.2-0.1-7-1.8-9.1-4.8C-0.1,3.3,1,6,2.5,7C2,7,1,6.9,0.6,6.5
		c0,1.6,0.7,3.8,3.3,4.5c-0.5,0.3-1.4,0.2-1.8,0.1C2.3,12.5,4,14.3,6,14.3c-0.7,0.9-3.1,2.4-6,1.9c2,1.3,4.3,2.1,6.7,2.1
		c7,0,12.4-6.1,12.1-13.6c0,0,0,0,0,0c0,0,0,0,0-0.1c0,0,0,0,0-0.1C19.4,4.1,20.3,3.3,20.9,2.2z"/>
</g>
</svg>
