<?xml version="1.0" encoding="utf-8"?>
<!-- Generator: Adobe Illustrator 17.1.0, SVG Export Plug-In . SVG Version: 6.00 Build 0)  -->
<!DOCTYPE svg PUBLIC "-//W3C//DTD SVG 1.1//EN" "http://www.w3.org/Graphics/SVG/1.1/DTD/svg11.dtd">
<svg version="1.1" id="Layer_1" xmlns="http://www.w3.org/2000/svg" xmlns:xlink="http://www.w3.org/1999/xlink" x="0px" y="0px"
	 viewBox="0 0 195.5 89" enable-background="new 0 0 195.5 89" xml:space="preserve">
<g>
	<g>
		<g>
			<path fill="#FFFFFF" d="M52.5,84.8c0,1.1,0.9,2,2,2h35.6c1.1,0,2-0.9,2-2V22.8c0-1.1-0.9-2-2-2H54.5c-1.1,0-2,0.9-2,2V84.8z
				 M65.7,36c0-1.1,0.9-2,2-2h9.2c1.1,0,2,0.9,2,2v35.5c0,1.1-0.9,2-2,2h-9.2c-1.1,0-2-0.9-2-2V36z"/>
		</g>
		<g>
			<path fill="#FFFFFF" d="M129.3,18.8c0,1.1-0.9,2-2,2h-22.4c-1.1,0-2,0.9-2,2v61.9c0,1.1,0.9,2,2,2h35.5c1.1,0,2-0.9,2-2V5.2
				c0-1.1-0.9-2-2-2h-9.2c-1.1,0-2,0.9-2,2V18.8z M129.3,71.6c0,1.1-0.9,2-2,2h-9.2c-1.1,0-2-0.9-2-2V36c0-1.1,0.9-2,2-2h9.2
				c1.1,0,2,0.9,2,2V71.6z"/>
		</g>
		<g>
			<path fill="#FFFFFF" d="M190.9,60.4c1.1,0,2-0.9,2-2V22.8c0-1.1-0.9-2-2-2h-35.6c-1.1,0-2,0.9-2,2v61.9c0,1.1,0.9,2,2,2h35.6
				c1.1,0,2-0.9,2-2v-9.2c0-1.1-0.9-2-2-2h-22.4c-1.1,0-2-0.9-2-2v-9.2c0-1.1,0.9-2,2-2H190.9z M166.6,36c0-1.1,0.9-2,2-2h9.2
				c1.1,0,2,0.9,2,2v9.2c0,1.1-0.9,2-2,2h-9.2c-1.1,0-2-0.9-2-2V36z"/>
		</g>
		<g>
			<path fill="#FFFFFF" d="M28.4,32c0,1.1-0.9,2-2,2h-9.2c-1.1,0-2-0.9-2-2v-9.2c0-1.1-0.9-2-2-2H4.1c-1.1,0-2,0.9-2,2v61.9
				c0,1.1,0.9,2,2,2h9.2c1.1,0,2-0.9,2-2V73.3c0-1.1,0.9-2,2-2h9.2c1.1,0,2,0.9,2,2v11.5c0,1.1,0.9,2,2,2h9.2c1.1,0,2-0.9,2-2V60.1
				c0-1.1-0.9-2-2-2H17.2c-1.1,0-2-0.9-2-2v-6.9c0-1.1,0.9-2,2-2h22.4c1.1,0,2-0.9,2-2V22.8c0-1.1-0.9-2-2-2h-9.2c-1.1,0-2,0.9-2,2
				V32z"/>
		</g>
	</g>
</g>
</svg>
