<?xml version="1.0" encoding="utf-8"?>
<!-- Generator: Adobe Illustrator 17.1.0, SVG Export Plug-In . SVG Version: 6.00 Build 0)  -->
<!DOCTYPE svg PUBLIC "-//W3C//DTD SVG 1.1//EN" "http://www.w3.org/Graphics/SVG/1.1/DTD/svg11.dtd">
<svg version="1.1" xmlns="http://www.w3.org/2000/svg" xmlns:xlink="http://www.w3.org/1999/xlink" x="0px" y="0px"
	 viewBox="0 0 142.4 44.6" enable-background="new 0 0 142.4 44.6" xml:space="preserve">
<g id="BG">
</g>
<g id="Layer_1">
	<g>
		<path fill="#FFFFFF" d="M11.4,31.5c-1.2-1.2-2.5-2.5-3.7-3.7c-1.3-1.3-2-2.9-2.2-4.8c-0.3-2.4,0.4-4.6,1.9-6.4
			c0.1-0.1,0.2-0.3,0.4-0.5l3.6-3.6V5.7C11.4,2.6,8.8,0,5.7,0S0,2.6,0,5.7v32.7c0,3.1,2.6,5.7,5.7,5.7s5.7-2.6,5.7-5.7V31.5z"/>
		<path fill="#FFFFFF" d="M25.5,18.5l0.2-0.2c0.8-0.8,1.6-1.6,2.4-2.4c2-2,4-4,6-6c1.6-1.7,2.1-3.5,1.4-5.8c-0.7-2.4-2.9-4-5.5-4
			c-0.2,0-0.3,0-0.5,0c-1.4,0.1-2.6,0.7-3.6,1.7l-0.1,0.1C21.5,6.2,15.6,12,9.6,18c-0.1,0.1-0.2,0.2-0.3,0.3C8.3,19.6,7.8,21,8,22.8
			c0.1,1.3,0.6,2.3,1.5,3.2c1.7,1.7,3.5,3.5,5.2,5.2l0.1,0.1l0-0.1c0.5-1.9,1.5-3.6,2.9-5C19.2,24.8,21.8,22.1,25.5,18.5z"/>
		<path fill="#FFFFFF" d="M31,44c1.3-0.2,2.3-0.7,3.2-1.6c1.3-1.3,1.8-2.9,1.6-4.8c-0.1-1.3-0.7-2.4-1.6-3.3c-2.2-2.2-7.2-7.2-9-9
			l-1.4-1.4l0,0c-2.6,2.6-4,4-4.6,4.7c-0.2,0.2-0.4,0.5-0.6,0.8c-0.2,0.4-0.4,0.9-0.5,1.4c-0.1,0.4-0.1,0.8-0.1,1.3
			c0,0.2,0,0.3,0,0.5c0,0.4,0.1,0.8,0.3,1.2c0.2,0.5,0.4,1,0.8,1.6c0,0.1,0.1,0.1,0.2,0.3l0,0l1.1,1.2c1.1,1.1,4.7,4.7,5.7,5.7
			c0.7,0.7,1.6,1.2,2.7,1.5c0.1,0,0.2,0,0.4,0.1c0.1,0,0.3,0,0.5,0.1l0,0l0.8,0C30.6,44,30.8,44,31,44L31,44z"/>
		<path fill="#FFFFFF" d="M126.9,10.8c-4.4,0-8.5,1.8-11.5,5c-2.9,3.1-4.5,7.4-4.5,11.9v0.1c0,9.8,7,16.9,16.7,16.9
			c4.6,0,8.4-1.4,11.7-4.3l0,0c0.8-0.8,1.2-1.8,1.2-2.8c0-2.1-1.6-3.8-3.7-3.8c-1.2,0-1.8,0.4-2.4,0.8l0,0c-2,1.7-4.2,2.5-6.7,2.5
			c-3.6,0-6.4-1.9-7.5-5.2l-0.3-0.8h18.2c2.4,0,4.2-1.9,4.2-4.3C142.4,19,137,10.8,126.9,10.8z M119.9,24.6l0.2-0.7
			c1-3.5,3.5-5.6,6.7-5.6c1.2,0,5.3,0.4,6.6,5.6l0.2,0.7H119.9z"/>
		<path fill="#FFFFFF" d="M54.6,10.8c-9.7,0-17.3,7.4-17.3,17v0.1c0,9.4,7.5,16.8,17.2,16.8c9.7,0,17.3-7.4,17.3-16.9v-0.1
			C71.9,18.2,64.3,10.8,54.6,10.8z M61.8,27.9c0,1.9-0.6,3.8-1.8,5.2c-1.3,1.6-3.2,2.4-5.3,2.4c-4.1,0-7.2-3.3-7.2-7.7v-0.1
			c0-2,0.6-3.8,1.8-5.2c1.3-1.6,3.1-2.4,5.3-2.4c4.1,0,7.3,3.3,7.3,7.7V27.9z"/>
		<path fill="#FFFFFF" d="M103.6,0c-2.8,0-5,2.2-5,5v7.2L97.8,12c-2-0.8-4.2-1.2-6.4-1.2c-9.7,0-17.3,7.4-17.3,17v0.1
			c0,9.4,7.5,16.8,17.2,16.8c9.7,0,17.3-7.4,17.3-16.9V5C108.7,2.2,106.4,0,103.6,0z M98.6,27.9c0,1.9-0.6,3.8-1.8,5.2
			c-1.3,1.6-3.2,2.4-5.3,2.4c-4.1,0-7.2-3.3-7.2-7.7v-0.1c0-2,0.6-3.8,1.8-5.2c1.3-1.6,3.1-2.4,5.3-2.4c4.1,0,7.3,3.3,7.3,7.7V27.9z
			"/>
	</g>
</g>
</svg>
