<?xml version="1.0" encoding="utf-8"?>
<!-- Generator: Adobe Illustrator 17.1.0, SVG Export Plug-In . SVG Version: 6.00 Build 0)  -->
<!DOCTYPE svg PUBLIC "-//W3C//DTD SVG 1.1//EN" "http://www.w3.org/Graphics/SVG/1.1/DTD/svg11.dtd">
<svg version="1.1" id="Layer_1" xmlns="http://www.w3.org/2000/svg" xmlns:xlink="http://www.w3.org/1999/xlink" x="0px" y="0px"
	 viewBox="0 0 310 94" enable-background="new 0 0 310 94" xml:space="preserve">
<g>
	<path d="M300.5,56.8c-2.5,1.4-5,2.9-7.5,4.3c-7.5,4.2-15,8.4-22.6,12.4c-3.1,1.6-4.6,0.4-4.5-3.1c0-0.4,0-0.9,0.2-1.3
		c2.6-7.9,5.1-15.8,7.8-23.7c0.2-0.6,1.3-1.1,2-1.3c6.8-2.5,13.8-4.7,20.4-7.7c3-1.4,5.6-4.1,7.9-6.6c0.8-0.8,0.6-3.1,0-4.3
		c-0.4-0.7-2.5-0.8-3.7-0.7c-1.4,0.1-2.6,0.9-4,1.3c-5.7,1.7-11.3,3.4-17.5,5.2c2.1-5,4.1-9.2,5.5-13.6c0.8-2.4,1.1-5.2,0.8-7.7
		c-0.5-3.8-3.2-5-6.3-2.7c-2.2,1.7-4.3,4-5.5,6.5c-2.6,5.4-4.7,11.1-6.8,16.8c-1.1,2.8-2.5,5.2-4.6,7.4c-1.7,1.7-3,4.5-3,6.9
		c0,2.5-0.2,4.8-1,7.1c-1.1,3.1-1.9,6.4-3.2,9.5c-0.5,1.1-1.5,2.4-2.6,2.9c-3.9,1.9-7.8,3.6-11.8,5c-4.9,1.7-9.8,3.2-14.8,4.6
		c-1.3,0.4-3.1,0.4-3.3-1.5c-0.1-0.8,1.1-2,2-2.5c3.9-2.4,8.2-4.2,11.8-6.9c8.9-6.6,13.4-15.8,14.1-26.8c0.3-4.8-1.8-7.2-6.5-7.9
		c-4.9-0.7-9.2,1.1-13.1,3.7c-8.4,5.4-14.5,13-18.8,21.9c-2.3,4.8-3.7,10-5.5,15c-1.3-1.7-3.2-1.6-5.3-0.8c-2.8,1.2-5.7,2.3-8.5,3.4
		c-2.3,1-4.6,2-7.3,3.2c0.3-1.4,0.5-2.4,0.8-3.3c3.1-10.2,6.1-20.5,9.2-30.7c3.3-10.6,6.8-21.2,10.1-31.8c1.2-3.8,0.7-4.5-3-5.9
		c-3.8-1.4-4.6-1.2-6.5,2.4c-0.4,0.8-0.8,1.6-1.1,2.4c-3.8,11.6-7.9,23-11.3,34.7c-3.9,13.5-7.1,27.1-10.5,40.7c-1,4,1.9,7,6.1,7
		c4.4,0,8.5-1.4,12.2-3.7c5.3-3.3,10.6-6.7,15.8-10c1,2,1.8,4.4,3.2,6.5c2.7,4.2,5.7,5.3,10.6,4.2c2.4-0.6,4.8-1.1,7.1-1.9
		c7.7-3,15.4-6.1,23.4-9.2c0,1.6-0.2,3.5,0.1,5.3c0.2,1.8,0.7,3.6,1.4,5.3c2,4.8,3.7,5.5,8.5,3.6c0.8-0.3,1.7-0.6,2.4-1
		c9.1-5.1,18.3-10,27.3-15.3c3.9-2.3,7.4-5.4,10.9-8.3c2.3-1.9,2.9-4.5,2.3-7.4C303.7,56.3,302.5,55.8,300.5,56.8z M238.5,42.2
		c-0.6,1.7-0.9,3.2-1.7,4.3c-3.6,5.1-8.1,9.1-13.8,11.9C223.8,51.6,232.5,42,238.5,42.2z"/>
	<path d="M173.1,47.2c-2.1-7.5-7.1-10.5-14.7-9.1c-5.5,1-10.2,3.6-15,7.4c0.5-1.3,0.7-2,1-2.7c4-10.4,8-20.8,11.9-31.2
		c1-2.8,0.4-4.7-1.9-6.1c-2.2-1.4-4.5-1.2-6.5,0.8c-1.1,1.2-2.3,2.5-2.9,4c-1.5,3.4-2.9,6.9-4.1,10.5c-5,14.6-9.9,29.3-14.9,43.9
		c-0.5-0.1-1.1-0.1-1.7-0.1c-1.8,0.2-3.6,0.7-5.2,1.5c-4.1,2.1-8.2,4.4-12.3,6.6c-1.6,0.8-3.3,1.4-5.3,2.3c0-1.7-0.2-2.9,0-4
		c0.7-3.8,1.5-7.6,2.4-11.3c1.6-6.6,3.5-13.2,4.9-19.9c0.7-3.1-1.2-5-4.7-6.2c-2.9-1-3.6-0.6-5.6,2.6c-0.3,0.4-0.6,0.8-0.9,1.3
		c-0.5-0.7-1-1.3-1.4-1.8c-2.5-3.2-4.2-3.7-8-2.3c-5,1.8-9,5.1-12.6,8.9c-4.7,4.9-9.1,10-13.7,15.2c0,0-24.5,11.2-32.9,15.8
		c-1.1,0.6-3.2,1-4.1,0.3c-0.9-0.6-1.1-2.7-0.9-4c1-8.6,4.7-16.3,7.8-24.2c0.2-0.6,1.3-1,2.1-1.3c6.6-2.4,13.2-4.7,19.7-7.3
		c2.6-1.1,5-2.9,7.1-4.9c1.1-1,1.8-2.8,2.1-4.3c0.4-2-0.8-3.2-2.9-3c-1.4,0.2-2.7,0.6-4,1c-6.1,1.8-12.2,3.7-18.2,5.6
		c-0.1-0.2-0.3-0.4-0.4-0.6c1-2.4,2.2-4.7,3-7.2c1.2-3.4,2.6-6.7,3.3-10.2c0.5-2.4,0.1-5.2-2.4-6.5c-2.3-1.2-4.6,0.3-6,2
		C33,11,31.2,13.5,30,16.2c-2.1,4.6-3.8,9.4-5.5,14.2c-1.1,3-1.9,4.6-4.4,6.8c-0.3,0.2-0.4,0.6-0.7,0.7c-5.5,1.6-10.9,4.2-13,6.2
		c-1.9,1.9-1.2,4.4,1,4.9c1.6,0.4,3.3,0,9.5-2.2c0.4-0.2,0.1,1,0,1.5c-0.1,0.5-0.2,1-0.4,1.5c-2.3,7.5-4.7,15.1-6.9,22.6
		c-1.6,5.5-1.3,11,1.6,16.1c1.9,3.4,3.4,4,6.9,2.4c5.6-2.6,11.2-5.4,16.7-8.4c6.2-3.4,12.1-7.1,18.6-11c-0.7,1.6-1.2,2.7-1.7,3.9
		c-1.8,4.5-0.6,8,3.4,10.7c2.9,1.9,6.2,2.4,9.3,0.8c4.3-2.2,8.4-4.6,12.3-7.4c4-2.8,7.5-6.3,11.7-9.8c-0.2,2.6-0.5,4.7-0.5,6.8
		c-0.1,2.2-0.1,4.4,0,6.6c0.2,5.3,4,8.2,9,6.8c1.5-0.4,3-1,4.5-1.5c7.6-2.8,15.1-6,21.4-11.2c-0.3,3.5,0,7.3,2.5,9
		c0.6,0.4,1.2,0.8,1.8,1.1c11.2,5.9,22.2,4.8,32.2-2.3c10.9-7.8,15-19.2,14.9-32.3C174.1,50.8,173.6,49,173.1,47.2z M83.5,55.8
		c-0.1,1.4-0.4,3.2-1.3,4.1c-2.8,2.8-5.7,5.4-8.9,7.6c-2.5,1.8-5.4,2.9-8.1,4.4c-0.2-0.2-0.4-0.5-0.6-0.7c3.2-4.5,6.2-9.1,9.7-13.3
		c1.6-1.9,4.1-3.1,6.4-4.2C82.5,52.7,83.7,53.9,83.5,55.8z M154.9,72.3c-4.7,4.9-10.7,5.9-16.8,3c-1.3-0.6-2.6-1.3-4.3-2.2
		c2.6-3.9,4.8-7.5,7.3-10.8c3.1-4.1,7.1-7.3,12.1-8.8c4.5-1.4,6.8,0.3,6.8,4.9C160.1,63.7,158.5,68.5,154.9,72.3z"/>
</g>
</svg>
