<?xml version="1.0" encoding="utf-8"?>
<!-- Generator: Adobe Illustrator 17.1.0, SVG Export Plug-In . SVG Version: 6.00 Build 0)  -->
<!DOCTYPE svg PUBLIC "-//W3C//DTD SVG 1.1//EN" "http://www.w3.org/Graphics/SVG/1.1/DTD/svg11.dtd">
<svg version="1.1" id="Layer_1" xmlns="http://www.w3.org/2000/svg" xmlns:xlink="http://www.w3.org/1999/xlink" x="0px" y="0px"
	 viewBox="0 0 21.7 14.2" enable-background="new 0 0 21.7 14.2" xml:space="preserve">
<path fill="#1A1E23" d="M4.2,1.2C3.4,1.2,2.8,1.4,2.3,2C1.8,2.5,1.5,3.2,1.5,3.9c0,0.6,0.3,1.2,0.8,1.7l6.9,7
	c0.6,0.6,1.2,0.9,1.9,0.9c0.7,0,1.3-0.3,1.9-0.9l6.9-7c0.6-0.5,0.9-1.1,0.9-1.9c0-0.4-0.1-0.7-0.2-1C20.4,2.5,20.2,2.2,20,2
	c-0.3-0.2-0.6-0.4-0.9-0.6c-0.3-0.1-0.7-0.2-1-0.2c-0.8,0-1.4,0.3-1.9,0.7l-5,5.1l-5-5.1C5.5,1.4,4.9,1.2,4.2,1.2z"/>
</svg>
