<?xml version="1.0" encoding="utf-8"?>
<!-- Generator: Adobe Illustrator 17.1.0, SVG Export Plug-In . SVG Version: 6.00 Build 0)  -->
<!DOCTYPE svg PUBLIC "-//W3C//DTD SVG 1.1//EN" "http://www.w3.org/Graphics/SVG/1.1/DTD/svg11.dtd">
<svg version="1.1" id="Layer_1" xmlns="http://www.w3.org/2000/svg" xmlns:xlink="http://www.w3.org/1999/xlink" x="0px" y="0px"
	 viewBox="0 0 56.1 35.9" enable-background="new 0 0 56.1 35.9" xml:space="preserve">
<g>
	<path d="M28,17L42.6,2.2C44.1,0.8,45.9,0,48.1,0c1,0,2,0.2,2.9,0.6c0.9,0.4,1.8,1,2.5,1.7s1.3,1.5,1.8,2.4c0.4,0.9,0.6,1.9,0.6,3
		c0,2.2-0.8,3.9-2.5,5.4L33.4,33.3c-1.7,1.7-3.4,2.5-5.4,2.5c-2,0-3.8-0.8-5.5-2.5L2.3,13.1C0.8,11.6,0.1,9.9,0.1,8
		c0-2.2,0.7-4,2.2-5.6C3.7,0.8,5.5,0,7.8,0c2,0,3.8,0.7,5.5,2.2L28,17z"/>
</g>
</svg>
