<?xml version="1.0" encoding="utf-8"?>
<!-- Generator: Adobe Illustrator 17.1.0, SVG Export Plug-In . SVG Version: 6.00 Build 0)  -->
<!DOCTYPE svg PUBLIC "-//W3C//DTD SVG 1.1//EN" "http://www.w3.org/Graphics/SVG/1.1/DTD/svg11.dtd">
<svg version="1.1" id="Layer_1" xmlns="http://www.w3.org/2000/svg" xmlns:xlink="http://www.w3.org/1999/xlink" x="0px" y="0px"
	 viewBox="0 0 47.9 79.8" enable-background="new 0 0 47.9 79.8" xml:space="preserve">
<g>
	<path fill="#EE2A3C" d="M31.9,13.5c0,1.3-1.1,2.4-2.4,2.4H18.4c-1.3,0-2.4-1.1-2.4-2.4V2.4C16,1.1,14.9,0,13.5,0H2.4
		C1.1,0,0,1.1,0,2.4v74.9c0,1.3,1.1,2.4,2.4,2.4h11.1c1.3,0,2.4-1.1,2.4-2.4V63.5c0-1.3,1.1-2.4,2.4-2.4h11.1c1.3,0,2.4,1.1,2.4,2.4
		v13.9c0,1.3,1.1,2.4,2.4,2.4h11.1c1.3,0,2.4-1.1,2.4-2.4V47.5c0-1.3-1.1-2.4-2.4-2.4H18.4c-1.3,0-2.4-1.1-2.4-2.4v-8.3
		c0-1.3,1.1-2.4,2.4-2.4h27.1c1.3,0,2.4-1.1,2.4-2.4V2.4c0-1.3-1.1-2.4-2.4-2.4H34.4c-1.3,0-2.4,1.1-2.4,2.4V13.5z"/>
</g>
</svg>
