<?xml version="1.0" encoding="utf-8"?>
<!-- Generator: Adobe Illustrator 18.1.1, SVG Export Plug-In . SVG Version: 6.00 Build 0)  -->
<!DOCTYPE svg PUBLIC "-//W3C//DTD SVG 1.1//EN" "http://www.w3.org/Graphics/SVG/1.1/DTD/svg11.dtd">
<svg version="1.1" id="Layer_1" xmlns="http://www.w3.org/2000/svg" xmlns:xlink="http://www.w3.org/1999/xlink" x="0px" y="0px"
	 viewBox="7 380 512 180" enable-background="new 7 380 512 180" xml:space="preserve">
<g>
	<path fill="#FFFFFF" d="M287.7,490.9c-3.1-2.3-5.7-5.1-6.1-9.2c-1.2-12.2-1.5-24.1,3.1-35.8c1.1-3,1.9-6.1,1.8-9.2
		c-0.1-1.9-1.6-4.6-3.4-5.4c-1.8-0.8-4.9-0.5-6.6,0.5c-2.8,1.6-5.1,4.1-7.3,6.5c-10,11.9-19.9,24.1-29.8,36.3
		c-0.8,1-1.6,1.9-3.2,3.8c1-5.4,1.8-9.7,2.6-14.1c1.1-7.7,2.3-15.4,3.2-23.3c0.4-4.9-3.1-7.7-6.8-10c-3.5-2-6.1,0-8.7,2
		c-3.1,2.6-6.1,5.3-8.7,8.4c-7.3,8.8-14.1,17.9-21.1,26.7c-2,2.7-4.5,5-6.6,7.7c-0.4-0.3-0.8-0.4-1.2-0.7c0.5-3.8,1.1-7.4,1.6-11.1
		c1.4-9.6,3.4-19.2,4.1-29c0.5-7.6-4.5-10.3-11.3-6.4c-1.9,1.1-3.9,2.8-4.9,4.7c-1.6,3.5-3.1,7.3-3.8,11c-1.9,9.9-3.9,19.9-5.7,29.8
		c-0.7-0.1-1.4-0.3-2-0.1c-2.7,0.1-5.3,0.8-7.7,2c-5.7,2.8-11.1,6-16.7,9.1c-2.3,1.2-4.7,2-8.2,3.6c0.1-3.5,0-5.7,0.4-8
		c1.1-5.3,2.3-10.4,3.6-15.6c2-8.5,4.5-17,6.1-25.6c0.8-4.5-1.8-6.9-6.8-8.8c-4.2-1.4-5.8,1-7.4,3.9c-0.3,0.5-0.8,1.1-1.2,1.8
		c-0.5-0.8-1.1-1.5-1.6-2.2c-3.6-4.9-6-5.7-11.5-3.5c-2.8,1.1-5.6,2.6-8,4.3c-18.8,14.8-32.6,33-42.8,54.2c-2,4.2-1.9,8.2,1.2,11.9
		c3.5,3.9,7.7,6.4,13,5.1c3.9-1,8.1-2.6,11.4-4.7c6.5-4.5,12.7-9.6,18.8-14.5c2-1.6,4.1-3.6,5.7-5c0,6-0.1,11.9,0,17.9
		c0.1,6.5,5.1,11.5,10.3,10.2c14.8-4.1,28.7-9.9,40.2-19.9c-0.4,2.7-1,5.1-1.5,7.8c-1,4.9,0.1,9.2,4.2,12.2
		c4.1,3.1,8.4,1.8,11.9-0.8c4.1-3.1,8.4-6.2,11.4-10.2c8.8-11.3,16.8-23,25.2-34.5c1-1.4,1.9-2.8,3.4-4.6c-2.3,13-4.5,25.2-6.8,37.5
		c-0.7,3.9,0.1,7.1,3.1,9.6c3.1,2.6,6.8,2.7,10,0.7c4.3-2.6,8.5-5.3,11.9-8.9c6.2-6.4,11.9-13.5,18-20.2c0.7-0.8,1.5-1.6,2.3-2.7
		c0.4,5.8,0.5,11.1,1.2,16.3c1,7.1,4.2,13,10.8,15.9c10.8,4.7,14.5,3.2,19.2-6.8C292.5,495.6,292.3,494.3,287.7,490.9z M109.9,465
		c-1.4,2.8-3.2,5.7-5.7,7.4c-6,4.3-12.4,8.1-18.5,12.2c-0.3-0.4-0.7-0.8-1-1.2c4.7-7.7,8.9-15.6,15.9-21.5c1.1-1,2.3-1.9,3.8-2.2
		c1.8-0.4,4.7-1,5.3-0.1C110.4,460.8,110.7,463.5,109.9,465z"/>
	<path fill="#FFFFFF" d="M431.4,449.2c4.9-1.5,7.6-7.1,6.6-13.7c-0.5-4.2-3-5.4-9.1-6c-8.5-0.7-15.2,3.1-21.4,8
		c-7.8,6.1-15.3,12.4-23,18.5c0.7-5.6,1.5-11.4,2.2-17.3c0.4-4.1-1.6-7.3-5-8.5c-3.6-1.4-6.1,0.4-8.4,3c-3.5,4.3-5.7,9.1-5,14.9
		c0.8,7.3-0.7,14.1-2.8,20.9c-0.3,0.8-0.8,1.9-1.5,2.2c-10,4.2-20,8.5-30.2,12.3c-4.9,1.8-10,2.8-15.2,3.9c-1,0.1-2.6-1.1-3.2-2
		c-0.3-0.4,0.8-2.3,1.6-2.8c4.6-2.7,9.3-4.9,13.8-7.6c14.5-8.9,21.8-22.5,23.4-39c0.7-7.3-2.6-11.1-9.7-11.9
		c-7.1-0.8-13.3,1.9-18.8,5.8c-16.3,11.7-26.9,27.5-31.2,47.2c-1.9,8.7-0.7,16.7,4.6,24.1c3.4,4.6,7.8,6.5,13.4,5.1
		c3.5-1,7.1-1.8,10.6-3c12.4-3.9,24.4-8.7,35.8-16c-0.7,2.8-1.4,5-1.6,7.3c-1.1,7.8,3.5,12.6,11.3,11.4c5.6-0.7,7.6-2.8,8.8-9.5
		c1.9-11.1,5.7-21.1,15-28.4c4.2-3.4,8.4-6.8,12.7-9.9c6.5-4.6,13.5-8.4,22.1-8.1C428.6,450,430.1,449.6,431.4,449.2z M333.9,443.2
		c1-0.5,2.2-0.1,3.5-0.3c0,1.2,0.4,3-0.3,3.6c-3.9,4.6-7.8,9.3-12.2,13.5c-2.2,2.2-5.3,3.6-8.9,5.8
		C319.5,455.4,325.2,448.1,333.9,443.2z"/>
	<path fill="#FFFFFF" d="M513.9,474.3c-2.7,0.1-5.4,0.7-7.7,1.8c-5.6,2.7-11,5.8-16.4,8.8c-2.6,1.4-5.1,2.3-8.8,4.1
		c0.1-3.5-0.1-5.8,0.4-8.1c1.5-6.9,3.5-13.9,5.1-20.9c1.6-6.6,3.5-13.5,4.7-20.3c0.8-4.5-1.9-7.1-6.9-8.8c-4.2-1.4-5.8,1-7.4,3.9
		c-0.3,0.5-0.8,1.1-1.2,1.6c-0.7-1-1.2-1.8-1.8-2.6c-3.6-4.6-6-5.4-11.4-3.1c-3.5,1.5-6.9,3.5-10,5.8c-10.4,7.8-18.8,17.9-26.1,28.6
		c-5.3,7.8-10,16.1-14.5,24.5c-2.7,5-1,9.5,3.4,13.1c5.1,4.3,10.6,4.3,16.4,1.8c9.5-4.1,17-11,24.6-17.6c2-1.8,4.3-3.8,6.9-6.1
		c-0.3,3.4-0.7,6-0.7,8.5c0,4.5-0.3,9.1,0.5,13.5c1,5,5.4,8.1,9.6,6.9c15.2-4.3,29.5-10.3,41.4-21c2.3-2.2,3.9-5.8,4.9-9.1
		C519.7,476.5,517.4,474.1,513.9,474.3z M457.5,462.7c-0.5,2.7-1.8,5.8-3.9,7.6c-5.6,4.5-11.7,8.2-17.7,12.2
		c-1.1,0.7-2.3,1.1-3.6,1.5c3.9-8.1,8.2-15.9,15-21.9c1.5-1.4,3.6-2.6,5.7-3.2C456.4,457.9,458.1,459.1,457.5,462.7z"/>
	<path fill="#FFFFFF" d="M67.1,474.1c-1.4-2.3-4.5-2.2-6.9-0.8c-1.6,0.8-3.2,1.8-4.9,2.7c-6.2,3.2-12.4,6.9-19,9.6
		c-7.3,3-9.5,0.5-8.1-7.1c0-0.1,0-0.3,0.1-0.4c5.6-16.4,14.2-29.8,33.3-32.5c0.8-0.1,1.9-0.1,2.6-0.7c1.4-1.2,3.4-2.7,3.8-4.3
		c1.4-5.3-3.1-9.9-9.5-10.3c-6.4-0.4-11.9,2.2-17.2,5.6c-9.5,6.2-16.8,14.8-23.4,24c-6,8.4-9.6,17.7-10.7,27.7
		c-1,9.6,2.6,20.3,14.5,19.4c13.9-0.5,25.2-4.9,34.7-13c4.3-3.6,8.1-8.2,11.3-12.9C68.8,479.7,68.3,476.1,67.1,474.1z"/>
</g>
</svg>
