<?xml version="1.0" encoding="utf-8"?>
<!-- Generator: Adobe Illustrator 18.1.1, SVG Export Plug-In . SVG Version: 6.00 Build 0)  -->
<!DOCTYPE svg PUBLIC "-//W3C//DTD SVG 1.1//EN" "http://www.w3.org/Graphics/SVG/1.1/DTD/svg11.dtd">
<svg version="1.1" id="Layer_1" xmlns="http://www.w3.org/2000/svg" xmlns:xlink="http://www.w3.org/1999/xlink" x="0px" y="0px"
	 viewBox="10 168.5 493 172.3" enable-background="new 10 168.5 493 172.3" xml:space="preserve">
<g>
	<path fill="#FFFFFF" d="M91.7,213.8c-2.4,1-4.7,2.1-6.9,3.1c-3.1-7.2-4.5-8.3-10.2-5.8c-26.5,12-45.3,31-53,59.7
		c-2.1,7.5,4.5,16.1,12.1,16.2c10,0.1,18.3-4.2,25.7-10.3c4.5-3.7,8.5-8,13.4-12.8c-5.4,15.2-10.2,29.8-15.4,44.1
		c-1.4,3.8-3.9,7.5-6.6,10.6c-5.6,6.5-14.4,6.2-19.7-0.6c-1.7-2.1-2.8-4.5-4.1-6.9c-1.3-2.5-2.3-5.2-3.7-7.6c-0.6-1-2-2.1-3-2.1
		c-5.2,0.1-11.4,8.3-10.2,13.4c2.3,9.2,7.9,15.9,15.5,21c10.4,7.1,19.7,6.6,29.8-1.1c6.8-5.4,11.8-12.4,16.1-19.9
		C83.6,293.4,90.7,270,95.8,246c1.8-8.7,3.1-17.6,4.1-26.5C100.6,213.3,97.6,211.4,91.7,213.8z M56.1,260.2c-3,2.7-6.8,4.8-10.6,6.2
		c-3.4,1.4-5.6-1.3-4.7-4.8c0.1-0.8,0.7-1.6,1.1-2.3c7.2-10.4,15.8-19.6,26.7-26.5c2.5-1.6,5.4-2.5,8.2-3.7c0.3,0.3,0.4,0.7,0.7,1
		C71.9,241.3,65.3,251.8,56.1,260.2z"/>
	<path fill="#FFFFFF" d="M255.7,260.4c0.7-3.1-1.6-5.4-4.8-4.9c-3.2,0.4-6.5,1.3-9.5,2.7c-5.6,2.7-11,6.1-16.5,8.9
		c-2,1.1-4.1,1.8-6.9,3c0-2.5-0.3-4.2,0-5.8c0.8-4.9,1.8-9.9,3.1-14.7c2.3-9.5,4.9-18.8,7.1-28.1c1-4.7-1.3-7.5-6.3-9.3
		c-3.9-1.4-5.4-0.8-8.2,3.8c-0.3,0.6-0.8,1-1.3,1.7c-0.8-1.1-1.6-2.1-2.1-3c-3.4-4.2-5.9-5.1-10.9-2.8c-3.4,1.6-6.9,3.2-9.9,5.6
		c-17.6,14.4-30.9,32-40.8,52.3c-2.1,4.4-2.3,8.7,1.3,12.7c3.5,3.8,7.8,6.1,13.1,4.9c7.9-1.6,14.1-6.2,20.2-11
		c5.5-4.4,10.7-8.9,15.8-13.3c0,6.2-0.1,12.1,0,18.2c0.1,6.1,5.1,11.1,9.9,9.9c15.7-4.2,30.5-10.4,42.5-21.6
		C253.7,267.6,254.9,263.6,255.7,260.4z M194.4,244c-0.3,2-1.3,3.9-2.5,5.6c-5.9,7.8-14.5,11.6-23.1,15.4
		c4.2-7.9,8.6-15.8,15.4-21.7c1.6-1.4,3.7-2.5,5.6-3.2C193.1,238.8,195.1,240.3,194.4,244z"/>
	<path fill="#FFFFFF" d="M442.7,260.5c1-1.8-0.1-4.8-0.4-7.2c-2,0.1-3.9,0-5.8,0.6c-7.2,2.8-14.1,6.2-21.3,8.9
		c-6.3,2.3-12.8,3.9-19.3,5.6c-1.1,0.3-2.7-1.3-4.1-2c0.7-1.1,1.3-2.5,2.4-3.1c4.5-2.7,9.5-4.8,13.8-7.6c14.1-9,21.4-22.1,22.8-38.6
		c0.7-8.3-3.2-12.7-11.7-12.1c-4.7,0.3-9.5,1.8-13.5,3.9c-9,4.7-15.8,12-21.6,20.2c-7.6,10.9-13.1,22.6-13.8,34.7
		c-0.1,7.9,1.7,13.7,5.5,18.8c3.4,4.7,7.9,6.6,13.5,4.8c10-3.2,20-6.3,29.9-10.2c5.9-2.3,11.4-5.8,16.6-9.2
		C438.7,266.2,441.2,263.5,442.7,260.5z M414.7,223.8c-1,2.4-1.4,4.7-2.5,6.3c-5.1,6.9-11.3,12.6-19,16.2
		C393.8,237.4,406.2,223.8,414.7,223.8z"/>
	<path fill="#FFFFFF" d="M145.3,261.9c-1.8-2.3-3.9-2.7-6.6-1.6c-7.5,3-15,5.9-23,9.2c0.3-1,0.3-1.6,0.4-2.1
		c4.4-14.8,8.7-29.6,13.3-44.3c4.8-15.4,9.9-30.6,14.5-45.8c1.4-4.5,0.6-5.6-4.2-7.6c-5.1-2-6.5-1.7-8.7,2.5c-1.1,2-2.3,4.1-3,6.3
		c-6.6,20.9-13.5,41.7-19.6,62.8c-3.9,13.4-6.8,27.1-9.7,40.6c-1.1,5.4,2.8,9.9,8.3,9.3c4.1-0.4,8.6-0.8,12-2.7
		c8.7-4.8,17.1-10,25.2-15.7C149.4,269.5,149.2,266.6,145.3,261.9z"/>
	<path fill="#FFFFFF" d="M320,216.8c2.8-5.1,1.4-9.6-3.9-11.8c-2.3-1-5.1-1.3-7.5-0.8c-18.2,4.2-30.2,15.9-37.8,32.4
		c-2.3,4.8-1.7,9.9,0.6,14.5c2.3,4.8,4.5,9.6,6.9,14.2c1.6,3.1,0.7,5.4-2,6.9c-1.8,1-4.1,1.7-6.2,2.1c-2.7,0.4-5.5,0.1-8,0.8
		c-4.1,1.1-8.3,2.3-12,4.2c-3.4,1.7-4.7,5.8-3.7,8.9c1.1,3.5,3.9,4.4,7.2,4.7c2.3,0.3,4.4,0.4,6.1,0.6c17.3-0.3,29.8-8,38.5-22
		c2.7-4.4,3-8.5,0.3-13c-3.5-5.8-6.8-12-10.2-17.9c-2.7-4.7-0.6-12,4.1-13.8c0.8-0.3,2.1-0.4,2.7,0c0.6,0.3,0.3,1.7,0.6,2.5
		c0.6,1.8,0.7,4.4,2,5.2c1.3,0.8,4.2,1,5.6,0C309.9,229.8,316.1,224.3,320,216.8z"/>
	<path fill="#FFFFFF" d="M497.3,204.9c-2.3-0.8-5.1-1.1-7.5-0.6c-17.8,4.2-29.6,15.5-37.2,31.7c-2.3,4.8-2.3,9.7,0,14.5
		c2.1,4.5,4.4,9,6.5,13.5c2.4,4.9,1.3,7.8-4.1,9.6c-1.7,0.6-3.5,0.6-5.4,0.8c-4.2,0.7-8.6,0.8-12.7,2.1c-2.8,0.8-5.9,2.8-7.8,5.1
		c-3.7,4.4-1.6,9.7,4.1,10.9c2.5,0.6,5.1,0.6,6.6,0.7c17.5,0.4,33-9,40.6-23.7c1.8-3.5,1.8-6.6-0.1-10.2
		c-3.7-6.2-7.1-12.6-10.7-18.9c-2.8-4.8-0.8-12.1,4.1-14.1c2.5-1.1,3.8-0.3,3.1,2.3c-0.7,2.5-0.3,4.8,2,5.6c1.8,0.7,4.7,0.7,6.1-0.3
		c6.6-4.7,12.7-10,16.6-17.3C504.4,211.6,502.8,207.1,497.3,204.9z"/>
	<path fill="#FFFFFF" d="M380.3,216.8c2.8-5.2,1.4-9.5-3.9-11.7c-2.3-1-5.4-1.3-7.8-0.7c-17.6,4.2-29.3,15.5-37.1,31.3
		c-2.5,5.2-2.3,10.7,0.3,15.9c2.1,4.4,4.4,8.7,6.3,13.3c1.8,4.1,1.1,6.3-3,8.2c-1.8,0.8-3.9,1.1-5.9,1.4c-3.8,0.6-7.9,0.7-11.6,1.7
		c-3,0.8-6.2,2.1-8.3,4.2c-1.7,1.8-2.7,5.2-2.5,7.9c0.3,3.1,3.4,4.1,6.3,4.5c2.3,0.3,4.4,0.4,6.6,0.6c16.9-0.3,29.8-7.6,38.6-22.1
		c2.7-4.4,3-8.5,0.3-13c-3.5-5.8-6.6-11.7-10-17.5c-2.7-4.8-1-11.8,3.7-14c0.8-0.4,2.1-0.4,3.1-0.1c0.4,0.1,0.6,1.8,0.3,2.5
		c-0.7,2.4-0.1,4.5,2,5.2c1.7,0.7,4.4,0.8,5.6-0.1C370.1,229.6,376.3,224.3,380.3,216.8z"/>
</g>
</svg>
