<?xml version="1.0" encoding="utf-8"?>
<!-- Generator: Adobe Illustrator 18.1.1, SVG Export Plug-In . SVG Version: 6.00 Build 0)  -->
<!DOCTYPE svg PUBLIC "-//W3C//DTD SVG 1.1//EN" "http://www.w3.org/Graphics/SVG/1.1/DTD/svg11.dtd">
<svg version="1.1" id="Layer_1" xmlns="http://www.w3.org/2000/svg" xmlns:xlink="http://www.w3.org/1999/xlink" x="0px" y="0px"
	 viewBox="23.8 126.6 497.1 568.4" enable-background="new 23.8 126.6 497.1 568.4" xml:space="preserve">
<g>
	<path fill="#FFFFFF" d="M486.3,190.4c-67.9-69-161.4-88.6-259.7-25.8c-22,13.9-42.8,29.7-56.3,52.4c-7.7,13.1-3.9,28.8,8.5,38.5
		c11.2,8.9,19.6,8.5,32.7-3.5c26.6-24.7,56.6-42.4,94.4-51.3c-11.6,27.8-22.7,53.2-32.7,79c-19.2,49.3-39.3,97.9-55.9,148
		c-11.9,36.2,10.8,71.3,47.8,80.6c31.9,8.1,63.2,5,92.5-10.5c77.8-41.9,125.6-109.4,156.1-190.9
		C529.8,262.4,518.2,223.2,486.3,190.4z M451.8,303.3c-18.8,58.2-57,101.7-114.5,125.3c-8.9,3.5-20.1,1.6-30.1,2.3
		c0.4-9.6-1.6-20.1,1.9-28.8c20.1-55.5,40.9-110.3,61.6-165.3c4.2-11.2,8.5-22.3,12.7-34.3C432.2,210.4,466.6,258.5,451.8,303.3z"/>
	<path fill="#FFFFFF" d="M160.9,173c-1.2-13.5-4.6-26.6-19.2-30.8c-15-4.2-26.6,3.5-33.6,15.7c-8.5,15-17.7,30.1-21.6,46.7
		C64.7,292.5,44.7,380.8,25,469.4c-5.7,26.2,8.1,40.5,33.9,39.3c27.4-1.6,55.9-29.7,56.3-57c0.8-52.4,8.9-104,22.3-154.9
		c9.6-35.4,24.7-107.5,23.6-108C161.2,183.4,161.7,178,160.9,173z"/>
</g>
</svg>
