<?xml version="1.0" encoding="utf-8"?>
<!-- Generator: Adobe Illustrator 18.1.1, SVG Export Plug-In . SVG Version: 6.00 Build 0)  -->
<!DOCTYPE svg PUBLIC "-//W3C//DTD SVG 1.1//EN" "http://www.w3.org/Graphics/SVG/1.1/DTD/svg11.dtd">
<svg version="1.1" id="Layer_1" xmlns="http://www.w3.org/2000/svg" xmlns:xlink="http://www.w3.org/1999/xlink" x="0px" y="0px"
	 viewBox="4.5 100.3 503.7 311.8" enable-background="new 4.5 100.3 503.7 311.8" xml:space="preserve">
<g>
	<path fill="#FFFFFF" d="M135.5,291.5c-10.4-6.4-20.8-12.8-30.7-19.7c-7.5-5.3-13.1-12.3-15.2-21.9c1.6-0.5,3.2-1.1,4.5-1.3
		c31.7-8.8,39.5-36.5,38.7-59.2c-0.5-11.2-13.9-20-25.6-16.8c-4.8,1.3-9.9,3.5-13.6,6.7c-8.8,7.7-17.3,15.7-25.1,24.5
		c-6.7,7.2-12.3,15.5-18.9,24.3c8-26.9,15.5-52.8,22.9-78.7c3.5-12,6.9-23.7,9.6-35.7c0.5-2.9-0.3-7.7-2.1-9.1
		c-9.9-7.5-19.2-4.8-24.3,6.1c-1.3,2.9-2.7,5.6-3.5,8.5c-10.1,33.9-20.8,67.5-30.1,101.6c-6.7,24-11.5,48.5-17.1,72.8
		c-1.9,8.5,0.8,14.1,6.7,17.1c6.4,2.9,12.5,0.8,17.3-6.9c3.7-5.9,6.4-12,9.9-17.9c12.5-21.6,24.8-43.2,37.6-64.8
		c2.1-3.7,5.9-6.7,9.3-9.1c5.3-3.2,8.3-1.1,8.3,5.3c0,8-4,13.9-10.4,18.1c-5.9,3.7-12.5,6.9-18.1,10.9c-2.1,1.6-4.5,5.3-4.3,7.7
		c1.6,28.8,16,49.6,42.1,61.6c14.7,6.9,26.4,2.7,34.9-11.5C142.7,297.6,142.1,295.7,135.5,291.5z"/>
	<path fill="#FFFFFF" d="M495.7,163.2c-3.5-0.8-7.5-0.8-11.2,0c-33.1,8.3-54.9,29.6-68.3,60.5c-3.2,7.2-2.4,14.7,0.8,21.9
		c4,8.8,8.3,17.6,12.5,26.4c3.7,7.7,2.4,11.7-5.3,15.5c-3.2,1.6-7.2,2.1-10.7,2.7c-6.7,1.1-13.3,0.8-19.7,2.7c-4,1.1-8.3,2.9-12,5.1
		c6.1-17.3,10.9-35.5,14.1-53.9c2.1-12,3.5-24,4.5-36.3c1.1-12.3-5.3-17.3-17.3-14.4c-7.7,1.9-12,7.2-14.9,13.9
		c-11.5,25.1-32.3,41.1-53.6,56.5c-2.1,1.6-6.4,2.9-7.7,1.9c-2.1-1.9-2.9-5.6-3.7-8.5c-0.3-1.3,0.3-2.9,0.8-4.5
		c1.9-6.9,3.7-13.6,5.6-20.5c3.2-11.2,6.4-22.7,9.3-33.9c1.6-5.9-1.3-12.5-6.1-14.7c-5.9-2.9-9.9,0.8-13.1,4.8
		c-3.2,4.3-6.4,8.5-8.5,13.3c-6.4,14.9-12,29.9-18.1,44.8c-0.8,2.1-2.7,4.8-4.5,5.6c-17.1,7.5-34.1,14.7-51.5,21.3
		c-7.5,2.9-15.7,4.5-23.7,5.9c-2.1,0.3-4.5-2.1-6.9-3.2c1.3-1.9,2.1-4.8,4-5.9c8-4.8,16.5-8.3,24.3-13.3
		c27.7-17.9,41.6-42.9,42.1-75.5c0.3-9.3-4.8-14.9-14.1-16.3c-4.8-0.8-10.1-1.3-14.4,0.3c-9.3,3.5-18.9,6.9-26.7,12.8
		c-26.4,20-43.7,46.7-52,78.7c-4,15.7-2.9,31.2,6.1,45.3c6.7,10.4,14.7,14.4,26.4,10.9c16-4.5,32.3-9.6,47.7-15.7
		c12.8-5.1,24.8-12,35.5-17.3c1.6,8.3,3.2,17.3,5.6,26.1c1.6,5.3,5.6,7.2,11.5,5.9c13.9-2.9,26.4-9.3,37.9-16.8
		c12.5-8.5,24.8-17.9,37.9-27.2c-1.1,5.1-2.1,9.6-3.2,14.1c-5.9,25.1-14.9,48.8-31.2,68.8c-14.1,17.3-35.7,30.9-60.3,16
		c-4-2.4-7.7-1.6-10.7,2.1c-4.5,5.6-9.3,11.2-13.3,17.3c-6.1,9.3-5.6,11.5,4.3,17.1c18.7,10.4,37.9,11.5,57.3,2.9
		c22.1-9.6,37.6-27.2,50.4-46.7c8.8-13.3,16.3-27.2,22.7-41.6c1.6,3.5,6.1,4.5,10.1,5.3c3.7,0.5,7.5,0.8,11.7,1.1
		c31.5,0,55.2-14.1,71.5-41.6c4-6.7,4.3-13.1,0.3-20c-6.4-10.9-12.3-22.1-18.7-32.8c-5.6-9.3-2.1-22.1,7.2-25.9
		c1.3-0.5,3.5-0.5,4.8,0c0.8,0.3,1.1,2.7,0.5,4c-1.6,4.5-0.5,8.5,3.5,10.1c2.9,1.3,8,1.3,10.4-0.3c12-8.5,22.9-18.1,30.1-31.2
		C511.5,176,507.2,166.4,495.7,163.2z M227.7,199.2c-1.9,4-2.7,8-5.1,11.2c-9.1,12.3-20.3,22.1-34.7,29.3
		C193.1,219.2,213.3,197.6,227.7,199.2z"/>
</g>
</svg>
