<?xml version="1.0" encoding="utf-8"?>
<!-- Generator: Adobe Illustrator 18.1.1, SVG Export Plug-In . SVG Version: 6.00 Build 0)  -->
<!DOCTYPE svg PUBLIC "-//W3C//DTD SVG 1.1//EN" "http://www.w3.org/Graphics/SVG/1.1/DTD/svg11.dtd">
<svg version="1.1" id="Layer_1" xmlns="http://www.w3.org/2000/svg" xmlns:xlink="http://www.w3.org/1999/xlink" x="0px" y="0px"
	 viewBox="7.6 306.8 511.9 207.1" enable-background="new 7.6 306.8 511.9 207.1" xml:space="preserve">
<g>
	<path fill="#FFFFFF" d="M518.4,374.1c-2.7-13.7-13.8-20-26.5-13.8c-5.2,2.6-9.8,6-14.5,9.3c-1.2,0.8-2.4,1.7-4.1,3.1
		c1.2-12-1.5-16.4-10.7-16.3c-15.3,0.3-30.1,2.4-44.7,7.3c-14.3,4.9-16.4,8.5-12,23.2c4.4,15.1,0.2,28-9,39.4c-2.7,3.4-7,6.3-11,7.8
		c-9.3,3.4-15.9-2.9-13.2-12.5c1.7-5.6,4.2-11.2,7.3-16.1c5.2-8.5,11.4-16.4,16.8-24.7c2-3.1,3.9-6.5,4.9-9.9
		c1.8-6.3-3.6-11.5-9.6-9.3c-3.2,1.2-6.5,3.2-9,5.6c-9.4,9.1-17.6,19.3-23.7,30.9c-0.5,1.2-1.3,2.4-2.4,3.1
		c-14,8.1-28,16.3-42.1,23.9c-2.7,1.5-6.3,1.5-9.4,2.2c-0.3-3.6-1.7-7.3-0.8-10.5c3.1-11,7.1-21.6,10.5-32.5
		c1.5-4.9,4.4-6.8,9.3-8.5c12.7-4.6,25-9.8,37.2-15.6c3.2-1.5,5.6-5.2,7.6-8.5c0.8-1.5,0.7-4.6-0.3-6c-0.8-1.2-3.7-1.5-5.6-1.3
		c-2.4,0.2-4.7,1.3-7.3,2.2c-9.6,2.9-19.5,5.9-30.3,9.1c3.4-8.3,6.8-15.1,9.1-22.3c1.3-4.6,2-9.6,1.5-14.2c-0.8-6.3-5.2-8-10.3-4.2
		c-3.7,2.9-7.3,6.8-9.3,11c-4.4,9.3-8.1,19.2-11.7,28.8c-1.7,4.7-3.9,8.8-7.8,12c-3.7,3.2-5.9,7.6-5.4,13c0.2,2.7,0.2,5.6-0.5,8.1
		c-3.4,11.7-7.3,23.2-10.7,34.8c-3.1,9.9-3.1,20,2.2,29.3c3.1,5.6,5.6,6.6,11.4,4.1c7.8-3.4,15.4-7,22.8-11
		c11.4-6.3,22.3-12.9,33.5-19.5c0,4.1-0.2,8,0,11.7c0.7,8.6,4.7,15.3,13,17.9c10.3,3.6,21.3,3.9,30.6-2c17.2-11,30.3-25.9,35.2-46.4
		c2.2-9,3.9-18.2-2.2-27c8.1-2.4,16.1-4.6,24.1-6.8c-9.1,37.1-18.1,73.5-26.9,109.8c-1.7,6.8-2,14-2.4,21.1
		c-0.2,4.1,1.5,7.6,5.7,9.1c9.1,3.2,15.6-0.8,16.6-10.3c1.3-12.4,2.7-24.7,4.6-37.1c1-6.5,2.7-12.9,4.2-19.7c1.3,0.7,2,1,2.7,1.3
		c10.1,7.3,20,5.6,29.6-1.2c11-7.8,19.2-17.9,26-29.4C518.7,403.6,521.3,389.4,518.4,374.1z M479.4,427.6c-4.6,4.7-8,4.4-13.2,0.3
		c-3.1-2.4-4.1-2.4-8.6,0.7c-0.3-0.2-0.8-0.3-1.2-0.7c4.7-11.4,9.1-22.8,14.2-33.8c3.4-7.3,9-12.9,17.7-14c5.2-0.7,7.3,0.7,7.6,5.9
		C497.2,402.6,490.6,416.1,479.4,427.6z"/>
	<path fill="#FFFFFF" d="M195.4,426.1c3.4-4.2,3.9-9.9,1.3-12.4c-3.6-3.6-7.8-2-11.7-0.7c-2,0.7-4.1,1.7-6,2.7
		c-6.3,3.4-12.4,7-18.8,10.3c-2.2,1.2-4.7,2-8.1,3.6c0-3.4-0.3-5.6,0-7.8c1-5.7,2.4-11.4,3.7-16.9c2.7-11.5,5.9-22.8,8.5-34.5
		c1.2-5.6-1.7-9-8-11c-4.7-1.5-6-0.8-9.6,5.1c-0.3,0.5-0.7,1-1.3,1.8c-0.7-1.2-1.2-1.8-1.7-2.6c-4.6-6.3-8.3-7.5-15.3-4.2
		c-4.1,1.8-8.3,4.2-11.7,7.1c-20.5,17.1-36.4,38.1-48.3,61.9c-2.7,5.4-3.4,10.9,1.2,15.8c4.6,4.9,9.9,8.1,16.6,5.9
		c5.7-1.8,11.5-4.2,16.3-7.8c8.6-6,16.4-13.2,24.5-19.8c0.8-0.7,1.7-1.2,2.2-1.5c0,7.8-0.5,15.8,0.2,23.6c0.7,8.3,7,12.2,14.9,9.8
		c14.8-4.4,28.8-10.5,41.3-19.5C189.2,432.5,192.8,429.6,195.4,426.1z M123.5,396.5c-1,3.9-2.6,8-5.1,10.9c-7,7.8-16.3,12-25.4,16.4
		c-0.5-0.3-1-0.8-1.3-1.2c5.9-8,11.5-16.1,17.7-23.6c2.4-2.7,6.3-4.4,9.6-5.7C121.8,391.8,124.2,393.6,123.5,396.5z"/>
	<path fill="#FFFFFF" d="M279.5,370.6c-2.2-8.5-7.6-12.7-16.3-12.2c-4.2,0.2-8.8,1.5-12.5,3.6c-5.2,2.7-9.8,6.6-15.1,10.1
		c0.2-2.6,0.2-4.7,0.3-7c0.2-4.1-1.8-5.9-5.9-6c-8.3-0.7-12,1.5-14.9,9.4c-0.8,2.4-1.7,4.7-2.4,7.1c-9,35.6-18.1,70.9-26.7,106.7
		c-1.7,7.3-2.6,14.9-2.4,22.3c0,6.8,3.9,9.1,11.7,9c7.3-0.2,9.6-2.4,10.3-9.3s0.8-13.8,1.8-20.8c1.8-12.4,4.2-24.7,6.5-37.6
		c1.5,0.7,2,0.8,2.6,1.2c11.2,8.3,21.6,5.9,31.9-1.8c14.2-10.9,24.5-24.9,30.8-41.6C283.1,392.6,282.4,381.6,279.5,370.6z
		 M255.4,405.7c-3.9,7.5-8.1,14.9-13.2,21.3c-4.2,5.4-8.3,5.1-13.7,0.8c-3.2-2.6-5.9-1.5-9.6,1.7c4.7-14.8,9-28.1,16.8-40
		c3.6-5.4,8.8-8.8,15.4-9.4c4.7-0.5,6.6,0.8,7.1,5.6C258.7,392.6,258.5,399.5,255.4,405.7z"/>
	<path fill="#FFFFFF" d="M66.3,422.6c-2.9-5.2-5.2-6.3-10.9-4.4c-2.2,0.7-4.2,1.3-6.3,2.4c-6.6,2.9-13.3,5.7-20.6,8.8
		c0.3-1.3,0.3-2.2,0.5-2.9c6.8-22.1,13.3-44.2,20.2-66.3c4.6-14.8,9.3-29.4,13.8-44c1.2-3.6-0.2-5.7-3.4-7.1c-1.8-0.8-3.9-1.5-5.7-2
		c-2.6-0.8-4.7,0-5.9,2.6c-1.7,3.4-3.6,6.6-4.7,9.9c-9.1,28.6-18.1,57.4-26.7,86.2c-3.6,12-6,24.5-8.6,36.7
		c-1.8,8.3,3.1,13.7,11.5,12.9c4.1-0.3,8.6-0.8,12-2.7c11-6.3,21.6-12.9,32.2-19.8C68.6,429.6,68.7,427,66.3,422.6z"/>
</g>
</svg>
