<?xml version="1.0" encoding="utf-8"?>
<!-- Generator: Adobe Illustrator 18.1.1, SVG Export Plug-In . SVG Version: 6.00 Build 0)  -->
<!DOCTYPE svg PUBLIC "-//W3C//DTD SVG 1.1//EN" "http://www.w3.org/Graphics/SVG/1.1/DTD/svg11.dtd">
<svg version="1.1" id="Layer_1" xmlns="http://www.w3.org/2000/svg" xmlns:xlink="http://www.w3.org/1999/xlink" x="0px" y="0px"
	 viewBox="5.8 200.1 501.1 108.9" enable-background="new 5.8 200.1 501.1 108.9" xml:space="preserve">
<g>
	<path fill="#FFFFFF" d="M452.7,231.1c-1.7,0.8-3.3,2-4.5,3.3c-5.7,6-11.2,12.1-16.8,18.1c-0.6,0.6-0.9,1.2-1.5,1.8
		c-0.5,0.6-1.1,0.9-1.9,1.7c2.5-9.6,4.9-18.8,7.5-28.6c-3.6-0.5-5.8-1.1-7.8-0.8c-6.7,0.9-13.5,1.9-20.2,3.6
		c-8.4,2.1-9.6,4.4-7.4,12.7c2.1,7.8,0,14.5-4.9,20.5c-1.6,1.9-4.1,3.5-6.4,4.1c-4.4,1.2-7.1-1.6-6.1-6c0.7-3,2-6,3.6-8.5
		c3.4-5.4,7.3-10.5,10.5-16c0.9-1.7,0.1-4.5,0-6.7c-2.2,0.2-5.2-0.4-6.6,0.8c-11.4,9.8-19.1,21.8-19.2,37.4c-0.1,5.6,2.7,9.7,8,10.5
		c4.6,0.7,9.9,0.7,14-1c14-6.1,22.4-24.2,18.8-39c3.1-0.8,6.1-1.7,9-2.4c-2.2,9.8-4.5,19.2-6.4,28.5c-0.7,3.4-2.1,7.8,1.7,9.8
		c3.6,2,7.1-0.7,10.1-3.2c2.1-1.7,4.1-3.4,5.9-5.3c4.1-4.5,8-9.1,12.8-14.6c-0.4,2.5-0.9,4.1-0.8,5.6c0.5,5,0.6,10.2,1.9,15
		c0.8,2.9,3.6,5.2,7.4,3.4c4.5-2.1,5.8-5.7,4.8-9.5c-1-3.9-1.7-8.1-1.5-12.2c0.2-6.4,1.5-12.6,1.9-19
		C458.6,230.6,456.3,229.3,452.7,231.1z"/>
	<path fill="#FFFFFF" d="M126.7,265.7c-1.5-1.2-3.3-3.1-3.4-4.8c-0.2-6.7,0.2-13.5,0.7-20.4c0.2-2.6,1.7-5,1.9-7.7
		c0.1-1.6-0.7-4.2-1.9-4.7c-1.4-0.7-4.1-0.2-5.3,0.8c-3.3,2.8-6.3,6.1-9.1,9.4c-5,6.1-9.9,12.2-15.6,19.2c1.1-7.4,2.1-13.6,3.2-19.9
		c0.7-4,0.2-7.6-3.7-9.6c-4-2.1-6.5,1-8.7,3.5c-5.3,6.5-10.5,13.2-15.8,19.7c-1.3,1.7-2.9,3.2-4.3,4.8c-0.6-2.9-0.2-5.2,0.2-7.5
		c0.8-5.8,1.9-11.7,2.4-17.6c0.2-1.6-0.8-4.5-1.8-4.7c-2.1-0.4-5-0.3-6.4,1c-2,1.9-3.5,4.9-4,7.6c-1.7,7.3-2.7,14.7-4,22
		c-0.8,4.4-1.9,8.8-2.7,13.3c-0.7,3.3-0.4,6.9,3.1,7.9c2.3,0.7,5.8-0.1,8-1.4c2.9-1.7,5.4-4.3,7.5-6.9c4.8-6.2,9.2-12.5,13.6-18.9
		c0.8-1.2,1.8-2.4,3.3-4.6c-1.5,8.5-3.1,15.6-3.9,22.9c-0.3,2.2,0.7,5.5,2.2,6.8c1.4,1.1,5,0.9,6.7-0.2c4.2-2.9,7.8-6.4,11.5-10.1
		c2.7-2.6,5-5.7,8.1-9.3c0.3,3.8,0.3,6.5,0.7,9.2c0.8,6.9,4.5,10.9,10.7,12.5c4.3,1,6.3-1.5,8-4.7
		C129.7,270.5,129.6,268.1,126.7,265.7z"/>
	<path fill="#FFFFFF" d="M364.8,243.9c0.6-4.1,0.7-8.4,0.4-12.6c-0.2-2.2-1.1-5.9-2.5-6.3c-2.1-0.6-5.3,0.6-6.9,2.1
		c-4.5,4.5-8.5,9.5-12.5,14.4c-3,3.6-5.8,7.6-8.7,11.3c-0.3-0.2-0.6-0.4-0.9-0.6c0.7-2.1,1.4-4.4,2.1-6.5c4.1-13,8.3-26,12.1-39.1
		c0.6-1.9-0.9-4.4-1.4-6.5c-2.6,0.7-5.9,0.9-7.8,2.5c-1.9,1.7-2.6,4.9-3.5,7.5c-5.5,18.4-10.9,36.9-16.4,55.4
		c-0.8,3-2.7,6.8,0.8,8.2c2.2,0.9,5.8-1.2,8.8-2.1c0.8-0.3,1.5-1.1,2.1-1.8c6.1-6.6,12.1-13.4,18.2-20c0.9-1,1.9-2.1,3.4-3.7
		c0,8.4-0.1,15.7,0,23c0.1,5.4,4.3,8,9.3,5.9c5-2.1,7.9-8.7,5.5-13.6C364.1,255.8,364,250,364.8,243.9z"/>
	<path fill="#FFFFFF" d="M52.3,226.2c-1.6-1.8-5.1-3.1-7.6-2.7c-8.4,1.2-14.5,6.6-19.6,13.2s-6.4,13.3-1.8,20.6
		c0.7,1.2,1.3,2.5,2,3.7c1.9,3.6,0.4,5.6-3.3,6.4c-1.8,0.4-3.7,0.3-5.5,0.7c-3,0.7-6.1,1.4-8.7,3c-1.3,0.7-2.2,3.4-2.1,5
		c0.2,1.2,2.4,2.8,3.9,3.1c11.4,2.2,23.9-3.8,28.9-14.3c0.9-2,0.8-5,0-6.9c-1.7-4.1-4.3-7.8-6.4-11.9c-2.1-4.1-0.7-7.4,3.5-8.7
		c1.1,2.1,1.7,4.4,2.9,5c1.2,0.5,3.6-0.6,4.9-1.6c2.7-2.3,5.5-4.8,7.4-7.7C52.2,231.2,53.3,227.3,52.3,226.2z"/>
	<path fill="#FFFFFF" d="M317.9,237.1c-1.7-9.2-8.1-12.3-16.3-7.5c-2.3,1.4-4.6,3.1-5.9,4c-1.8-2.1-2.9-5-4.8-5.5
		c-3.9-1.2-6.4,1.4-7.6,5c-0.3,0.8-0.6,1.8-0.8,2.7c-1,3.3-1.9,6.5-3,9.8c-0.5,1.2-1.2,2.6-2.2,3.3c-8,4.7-16.2,9.3-24.4,13.8
		c-1.2,0.7-3.7,1.1-4.2,0.6c-0.8-1.1-1.2-3.2-0.8-4.6c1.5-5.5,3.6-10.9,5.1-16.4c0.9-3.4,3-4.8,6.3-6c6.9-2.6,13.6-5.8,20.2-9.3
		c1.4-0.7,1.6-3.9,2.2-6c-1.9-0.1-3.8-0.7-5.6-0.2c-4.2,1-8.3,2.6-12.4,3.8c-1.2,0.4-2.4,0.4-4.2,0.7c1.8-4.5,3.5-8.2,4.8-12
		c1.1-3.3,2.1-7.5-1.8-9.1c-3.5-1.4-6,2-7.5,5c-2.3,4.9-4.2,10-6.5,14.9c-0.7,1.3-2.4,3-3.6,2.9c-5.5-0.3-10,1.9-14.2,5
		c-4.9,3.8-9.7,7.7-14.8,11.8c0.5-3.7,1.3-7.1,1.1-10.5c-0.1-2-1.6-4.8-3.1-5.3s-4.7,0.8-5.6,2.3c-1.6,2.6-2.2,6-2.8,9.1
		c-1.2,6.5-2.1,13.2-3.2,19.8c-0.5,0-0.8,0-1.3,0c-0.9-4.1-3.6-4.5-6.8-3.1c-3.3,1.4-6.4,3.2-9.5,4.8c-2.5,1.3-5,2.5-8.4,4.3
		c0.3-2.9,0.3-4.4,0.7-5.9c2-7.8,4-15.6,5.9-23.5c0.7-3,0.6-6.4-3.2-7.2c-2.1-0.5-4.4,0.7-7.8,1.3c-3.6-3.7-6-4-12.2,0.7
		c-11.6,8.9-20.1,20.3-26.6,33.2c-1.7,3.4-2.1,6.4,0.8,9.3c3.1,3,6.7,3.6,10.4,2c3.9-1.9,7.6-4.3,11-6.9c3.3-2.3,6.2-5.1,9.2-7.7
		c0,3.3,0,6.4,0,9.4c0.1,7.1,3.6,10,10.1,7.2c8.6-3.7,16.9-8.2,24.7-12.1c-0.1,0.5-0.7,2.1-0.7,3.8c-0.2,5.5,3.5,8.4,8.4,6.4
		c1.9-0.7,3.6-3.5,4-5.5c2.4-15,13.2-22.6,25.5-28.7c1.4-0.7,3.2-0.7,5-1c-2.3,8-5,15.4-6.4,23c-0.7,4,0.1,8.6,1,12.7
		c0.7,3.4,3.6,4.5,7,2.8c4-2.1,8.1-3.8,12.1-6.1c6.7-3.7,13.3-7.8,20.6-12.1c-1.6,6.4-3.1,12.1-4.3,17.8c-1.8,8-3.6,16.1-4.8,24.2
		c-0.6,3.6,1,6.4,5.4,6.5c4.3,0.1,5.9-2,6.4-6.2c1-9.7,2.5-19.3,3.7-27.8c5,0.4,9.4,2,13,0.8C308.8,271.4,320.3,251.1,317.9,237.1z
		 M146,261c3.8-6.2,6.2-13.8,15.8-15.8C160.9,255.7,152.6,257.5,146,261z M305.4,248.5c-1.4,4.8-3.9,9.3-6.5,13.6
		c-1.9,3.1-4.9,4.8-8.6,1.9c-0.9-0.7-2.6-0.6-4.7-1c2.4-5.7,4.6-11.1,6.9-16.4c0.5-1,1.1-1.9,1.8-2.7c2.4-3.4,6.1-6.1,9.7-4.2
		C305.7,240.4,306.2,245.7,305.4,248.5z"/>
	<path fill="#FFFFFF" d="M501.8,255.3c-7,2.5-13.8,5.4-20.8,7.9c-1.9,0.7-4.1,0.4-6.2,0.6c-0.1-0.7-0.2-1.4-0.4-2.1
		c2.7-1.5,5.3-3,8-4.4c10.1-5.4,15.5-14.1,16.9-25.2c0.7-5.7-2.5-9.3-8.1-8.3c-4.1,0.7-8.4,2.5-11.8,5c-9,6.7-14.9,15.8-17.7,26.7
		c-0.7,3.1-0.9,6.5-0.6,9.7c1.1,9.1,6.3,12.5,14.9,9.9c6.8-2.1,13.5-4.7,20-7.6c3.5-1.6,6.7-4,9.4-6.6c1.2-1.1,0.9-3.8,1.3-5.8
		C505.2,255,503.4,254.7,501.8,255.3z M488,235.1c0.4,5-5.4,11.4-12.7,14.3C477.7,242.6,481.5,238,488,235.1z"/>
</g>
</svg>
