<?xml version="1.0" encoding="utf-8"?>
<!-- Generator: Adobe Illustrator 18.1.1, SVG Export Plug-In . SVG Version: 6.00 Build 0)  -->
<!DOCTYPE svg PUBLIC "-//W3C//DTD SVG 1.1//EN" "http://www.w3.org/Graphics/SVG/1.1/DTD/svg11.dtd">
<svg version="1.1" id="Layer_1" xmlns="http://www.w3.org/2000/svg" xmlns:xlink="http://www.w3.org/1999/xlink" x="0px" y="0px"
	 viewBox="8.8 361.8 512 207.2" enable-background="new 8.8 361.8 512 207.2" xml:space="preserve">
<g>
	<path fill="#FFFFFF" d="M513.6,454.9c-4.2,2.4-8.6,5-12.8,7.4c-12.8,7.1-25.7,14.4-38.6,21.2c-5.3,2.7-7.9,0.7-7.7-5.3
		c0-0.7,0-1.6,0.3-2.2c4.5-13.5,8.7-27,13.4-40.5c0.3-1,2.2-1.9,3.4-2.2c11.6-4.2,23.6-8.1,34.9-13.1c5.2-2.4,9.5-7,13.5-11.3
		c1.3-1.3,1-5.3,0-7.4c-0.7-1.2-4.2-1.3-6.3-1.2c-2.4,0.2-4.5,1.6-6.8,2.2c-9.7,2.9-19.4,5.8-29.9,8.9c3.6-8.6,7-15.7,9.4-23.3
		c1.3-4.1,1.9-8.9,1.3-13.1c-0.8-6.5-5.5-8.6-10.8-4.7c-3.7,2.9-7.4,6.8-9.4,11.1c-4.5,9.2-8.1,18.9-11.6,28.7
		c-1.9,4.8-4.2,8.9-7.9,12.6c-2.9,2.9-5.2,7.7-5.2,11.8c0,4.2-0.3,8.2-1.8,12.1c-1.9,5.3-3.2,11-5.5,16.3c-0.8,1.9-2.6,4.1-4.5,5
		c-6.6,3.2-13.4,6.1-20.2,8.6c-8.4,2.9-16.8,5.5-25.3,7.9c-2.2,0.7-5.3,0.7-5.7-2.6c-0.2-1.3,1.9-3.4,3.4-4.2
		c6.6-4.1,14-7.1,20.2-11.8c15.2-11.3,22.9-27,24.1-45.9c0.5-8.2-3.1-12.3-11.1-13.5c-8.4-1.2-15.7,1.9-22.4,6.3
		c-14.4,9.2-24.7,22.3-32.2,37.5c-3.9,8.2-6.3,17.1-9.4,25.7c-2.2-2.9-5.5-2.7-9.1-1.3c-4.8,2.1-9.7,3.9-14.5,5.8
		c-3.9,1.8-7.9,3.4-12.5,5.5c0.5-2.4,0.8-4.1,1.3-5.7c5.3-17.4,10.5-35.1,15.7-52.5c5.7-18.1,11.6-36.2,17.3-54.4
		c2.1-6.5,1.2-7.7-5.2-10c-6.5-2.4-7.9-2.1-11.1,4.1c-0.7,1.3-1.3,2.7-1.9,4.1c-6.5,19.9-13.5,39.3-19.4,59.3
		c-6.6,23.1-12.1,46.4-17.9,69.6c-1.8,6.8,3.2,12,10.5,12c7.6,0,14.5-2.4,20.8-6.3c9.1-5.7,18.1-11.5,27-17.1
		c1.8,3.4,3.1,7.6,5.5,11.1c4.7,7.1,9.7,9.1,18.1,7.1c4.1-1,8.2-1.9,12.1-3.2c13.1-5.2,26.3-10.5,40-15.7c0,2.7-0.3,6,0.2,9.1
		c0.3,3.1,1.2,6.1,2.4,9.1c3.4,8.2,6.3,9.4,14.5,6.1c1.3-0.5,2.9-1,4.1-1.8c15.5-8.7,31.3-17.1,46.7-26.2
		c6.6-3.9,12.6-9.2,18.6-14.2c3.9-3.2,5-7.7,3.9-12.6C519,454.1,517,453.2,513.6,454.9z M407.5,430c-1,2.9-1.6,5.5-2.9,7.4
		c-6.1,8.7-13.9,15.5-23.6,20.4C382.4,446,397.3,429.6,407.5,430z"/>
	<path fill="#FFFFFF" d="M295.7,438.5c-3.6-12.8-12.1-17.9-25.2-15.5c-9.4,1.8-17.4,6.1-25.7,12.6c0.8-2.2,1.2-3.4,1.8-4.7
		c6.8-17.8,13.7-35.6,20.4-53.3c1.8-4.8,0.7-8.1-3.2-10.5c-3.7-2.4-7.7-2.1-11.1,1.3c-1.9,2.1-3.9,4.2-5,6.8c-2.6,5.8-5,11.8-7,17.9
		c-8.6,25-17,50.1-25.5,75.1c-0.8-0.2-1.9-0.2-2.9-0.2c-3.1,0.3-6.1,1.2-8.9,2.6c-7,3.6-14,7.6-21,11.3c-2.7,1.3-5.7,2.4-9.1,3.9
		c0-2.9-0.3-5,0-6.8c1.2-6.5,2.6-13,4.1-19.4c2.7-11.3,6-22.6,8.4-34.1c1.2-5.3-2.1-8.6-8.1-10.6c-5-1.8-6.1-1-9.5,4.5
		c-0.5,0.7-1,1.3-1.6,2.2c-0.8-1.2-1.8-2.2-2.4-3.1c-4.2-5.5-7.1-6.3-13.7-3.9c-8.6,3.1-15.4,8.7-21.5,15.2
		c-8.1,8.4-15.5,17.1-23.4,26c0,0-41.9,19.2-56.2,27c-1.9,1-5.5,1.8-7,0.5c-1.6-1-1.9-4.7-1.6-6.8c1.8-14.7,8.1-27.9,13.4-41.4
		c0.3-1,2.2-1.8,3.6-2.2c11.3-4.1,22.6-8.1,33.7-12.5c4.5-1.9,8.6-5,12.1-8.4c1.9-1.8,3.1-4.8,3.6-7.4c0.7-3.4-1.3-5.5-5-5.2
		c-2.4,0.3-4.7,1-6.8,1.8c-10.5,3.1-20.8,6.3-31.2,9.5c-0.2-0.3-0.5-0.7-0.7-1c1.8-4.1,3.7-8.1,5.2-12.3c2.1-5.8,4.5-11.5,5.7-17.4
		c0.8-4.1,0.2-8.9-4.1-11.1c-3.9-2.1-7.9,0.5-10.3,3.4c-3.7,3.9-6.8,8.2-8.9,12.8c-3.6,7.9-6.5,16-9.4,24.3
		c-1.9,5.2-3.2,7.9-7.6,11.6c-0.5,0.3-0.7,1-1.2,1.2c-9.4,2.7-18.6,7.1-22.3,10.6c-3.2,3.2-2.1,7.6,1.8,8.4c2.7,0.7,5.7,0,16.3-3.7
		c0.7-0.3,0.2,1.8,0,2.6s-0.3,1.8-0.7,2.6c-3.9,12.8-8.1,25.8-11.8,38.6c-2.7,9.4-2.2,18.8,2.7,27.5c3.2,5.8,5.8,6.8,11.8,4.1
		c9.5-4.5,19.2-9.2,28.6-14.4c10.6-5.8,20.7-12.1,31.8-18.8c-1.2,2.7-2.1,4.7-2.9,6.6c-3.1,7.7-1,13.7,5.8,18.3
		c5,3.2,10.6,4.1,15.9,1.3c7.4-3.7,14.4-7.9,21-12.6c6.8-4.8,12.8-10.8,20-16.8c-0.3,4.5-0.8,8.1-0.8,11.6c-0.2,3.7-0.2,7.6,0,11.3
		c0.3,9.1,6.8,14,15.4,11.6c2.6-0.7,5.2-1.8,7.7-2.6c13-4.8,25.8-10.3,36.5-19.2c-0.5,6,0,12.5,4.2,15.4c1,0.7,2.1,1.3,3.1,1.9
		c19.2,10,38,8.2,55.1-3.9c18.6-13.4,25.7-32.8,25.5-55.2C297.4,444.7,296.5,441.6,295.7,438.5z M142.5,453.2
		c-0.2,2.4-0.7,5.5-2.2,7c-4.8,4.8-9.7,9.2-15.2,13c-4.2,3.1-9.2,5-13.9,7.6c-0.3-0.3-0.7-0.8-1-1.2c5.5-7.7,10.6-15.5,16.6-22.8
		c2.7-3.2,7-5.3,11-7.1C140.8,447.9,142.8,450,142.5,453.2z M264.5,481.4c-8.1,8.4-18.3,10-28.7,5.2c-2.2-1-4.5-2.2-7.4-3.7
		c4.5-6.6,8.2-12.8,12.5-18.4c5.3-7,12.1-12.5,20.7-15c7.7-2.4,11.6,0.5,11.6,8.4C273.4,466.7,270.8,474.9,264.5,481.4z"/>
</g>
</svg>
