<?xml version="1.0" encoding="utf-8"?>
<!-- Generator: Adobe Illustrator 17.1.0, SVG Export Plug-In . SVG Version: 6.00 Build 0)  -->
<!DOCTYPE svg PUBLIC "-//W3C//DTD SVG 1.1//EN" "http://www.w3.org/Graphics/SVG/1.1/DTD/svg11.dtd">
<svg version="1.1" id="Layer_1" xmlns="http://www.w3.org/2000/svg" xmlns:xlink="http://www.w3.org/1999/xlink" x="0px" y="0px"
	 viewBox="0 0 325.5 106.5" enable-background="new 0 0 325.5 106.5" xml:space="preserve">
<g>
	<path d="M96,55.4c2.9-2.5,4.2-11.7,2.2-15.1c-2.2-3.7-5.5-5.1-9.3-2.9c-2.8,1.6-5.4,4-7.2,6.6c-4.3,6.3-8.1,13-12.2,19.4
		c-1.2,2-2.8,3.7-4.2,5.6c-0.5-0.2-0.9-0.3-1.4-0.5c-0.4-1.7-1-3.4-1.1-5.1c-0.3-4.3-0.3-8.7-0.7-13c-0.5-5.7-4.9-7.7-9.5-4.4
		c-1.9,1.3-3.7,2.9-5.2,4.6c-5.8,6.4-11.4,13-17.2,19.5c-1.3,1.5-3,2.7-4.5,4.1c-0.4-0.2-0.8-0.4-1.1-0.7c0.3-1.5,0.6-3,0.9-4.5
		c2.1-8,4.5-16,6.2-24.1c0.4-2-1-4.4-1.5-6.6c-2.3,0.9-5.4,1.3-6.7,3c-2.2,3-3.8,6.7-4.9,10.3c-3.3,10.6-6.2,21.4-9.1,32.1
		c-0.7,2.4-1.1,4.9-1.2,7.4c-0.1,5,3.1,7.2,7.5,4.9c3-1.6,6-3.7,8.4-6.2c8.6-8.5,17-17.3,25.9-26.3c0,3.6-0.2,6.7,0.1,9.9
		c0.5,5.1,0.8,10.3,2.1,15.2c1.2,4.6,4.5,5.7,8.4,2.9c2.5-1.8,5-4.1,6.6-6.6c5.3-8.2,10.3-16.7,15.5-25c1.7-2.7,3.7-5.1,5.6-7.7
		C91.3,53.9,92,59,96,55.4z"/>
	<path d="M309.5,65.9c-8.3,4.5-16.5,9.3-24.9,13.8c-1.3,0.7-3.7,1.2-4.5,0.5c-0.9-0.8-1.2-3.1-0.8-4.5c1.9-6.5,3.9-13.1,6.3-19.4
		c0.7-1.8,2.8-3.4,4.7-4.2c6.8-3,14-5.3,20.6-8.8c2.4-1.2,5.3-5.9,4.6-7.6c-1.7-4-5.4-0.8-8.2,0c-5,1.3-9.9,2.8-15.4,4.4
		c2.2-6.2,4.3-11.1,5.4-16.2c0.5-2.1-1.4-4.7-2.2-7c-2.2,1-5.2,1.4-6.3,3.1c-2.8,4.3-4.6,9.1-7,13.7c-2.5,4.8-5.1,9.5-7.6,14.3
		c-0.8,1.5-1.7,2.9-2,4.5c-1.2,5.2-2.1,10.5-3.4,15.8c-0.3,1.3-1.3,3-2.4,3.4c-8.2,3.2-16.4,6.3-24.8,9.1c-1.2,0.4-2.8-0.5-4.3-0.7
		c0-0.5,0-1,0-1.5c2.9-1.6,5.8-3.1,8.7-4.7c10.7-5.9,16.7-15.1,17.9-27.2c0.7-6.6-3.4-10.6-9.8-8.6c-5.4,1.7-10.8,4.6-15,8.3
		c-8.8,7.8-14.2,17.9-16.3,29.5c-7.6-2.2-13.1,4.2-20.3,5.3c0.4-1.7,0.7-3,1-4.3c5.6-17.9,11.3-35.8,16.7-53.8c0.9-3,4-7-1.6-9.2
		c-5.7-2.2-6.6,2.3-7.8,5.7c-3.5,10-6.8,20.2-9.9,30.3c-2.9,9.6-5.5,19.2-8.5,29.7c-2.3-5.2-5.4-4.8-9-3.2c-4,1.8-8.1,3.3-12.7,5.2
		c0.5-1.9,0.7-3,1-4c5.9-18.9,11.7-37.8,17.6-56.7c1-3.2,1.2-5.7-2.7-7.1c-4-1.4-5.5,0.9-6.6,3.9c-1.7,4.5-3.6,9-5,13.6
		c-4.2,13.6-8.3,27.4-12.4,41c-9.7-1.1-15.9,7.4-25.2,9.4c0.4-3.2,0.6-5.9,1.2-8.4c1.8-7.4,3.7-14.8,5.7-22.2
		c0.9-3.3,0.5-5.9-2.8-7.6c-3.3-1.8-5.7-0.7-7.4,2.9c-5.2-5.3-6.3-5.5-12.2-2.3c-1.7,1-3.5,2-5,3.3c-10.9,9.3-19.3,20.6-25.8,33.4
		c-1.8,3.5-2.5,7,0.6,10.2c3.1,3.3,7.2,4.3,10.9,2.3c5.3-2.7,10.1-6.3,15-9.7c2.4-1.6,4.4-3.7,7.1-6.1c0,4.3,0,7.6,0,10.9
		c0.1,6.9,3.5,9.8,9.8,7.3c8.6-3.4,16.9-7.6,25.2-11.4c-0.2,0.9-0.5,2.5-0.7,4c-1,6.3,1.8,9.4,8.1,8.2c3-0.6,6.1-1.8,8.8-3.3
		c5.3-2.9,10.3-6.3,15.8-9.7c-0.3,2-0.7,3.6-0.9,5.2c-0.8,6.1,1.9,8.9,8,7.7c3-0.6,6.1-1.8,8.8-3.3c5.2-2.9,10.1-6.1,15.2-9.3
		c5.7,11.4,7.8,12.4,20,8.1c7.3-2.6,14.5-5.6,21.7-8.5c0.4,2.5,0.5,5.1,1.1,7.6c1.9,6.8,4.1,8.2,10.3,4.9
		c11.3-6,22.2-12.7,33.2-19.3c2.1-1.2,4.1-3.2,5.1-5.3c0.8-1.8,0.1-4.3,0.1-6.6C312.8,65,310.9,65.1,309.5,65.9z M252.8,50.9
		c-2.4,7.3-7.8,11.1-14.1,14.8C240.5,57.8,246.4,51.5,252.8,50.9z M117.5,70.8c-3.7,3-8,5.3-12,7.8c-0.4-0.4-0.8-0.8-1.2-1.2
		c2.8-3.9,5.2-8.2,8.5-11.6c2-2,7.6-4.1,7.9-3.6C123.4,66.1,120.1,68.7,117.5,70.8z"/>
</g>
</svg>
