<?xml version="1.0" encoding="utf-8"?>
<!-- Generator: Adobe Illustrator 17.1.0, SVG Export Plug-In . SVG Version: 6.00 Build 0)  -->
<!DOCTYPE svg PUBLIC "-//W3C//DTD SVG 1.1//EN" "http://www.w3.org/Graphics/SVG/1.1/DTD/svg11.dtd">
<svg version="1.1" id="Layer_1" xmlns="http://www.w3.org/2000/svg" xmlns:xlink="http://www.w3.org/1999/xlink" x="0px" y="0px"
	 viewBox="0 0 548 128.2" enable-background="new 0 0 548 128.2" xml:space="preserve">
<g>
	<path d="M484.5,37.4c-1.8,0.9-3.5,2.1-4.8,3.5c-6.1,6.4-12,12.9-18,19.4c-0.6,0.6-1,1.3-1.6,1.9c-0.5,0.6-1.2,1-2,1.8
		c2.7-10.3,5.2-20.1,8-30.6c-3.8-0.5-6.2-1.2-8.3-0.9c-7.2,1-14.5,2-21.6,3.8c-9,2.3-10.3,4.7-7.9,13.6c2.3,8.4,0,15.5-5.2,21.9
		c-1.7,2-4.4,3.7-6.9,4.4c-4.7,1.3-7.6-1.7-6.5-6.4c0.7-3.2,2.1-6.4,3.8-9.1c3.6-5.8,7.8-11.2,11.2-17.1c1-1.8,0.1-4.8,0-7.2
		c-2.4,0.2-5.6-0.4-7.1,0.9c-12.2,10.5-20.4,23.3-20.5,40c-0.1,6,2.9,10.4,8.6,11.2c4.9,0.7,10.6,0.8,15-1.1
		c15-6.5,24-25.9,20.1-41.7c3.3-0.9,6.5-1.8,9.6-2.6c-2.4,10.5-4.8,20.5-6.9,30.5c-0.8,3.6-2.2,8.3,1.8,10.5
		c3.9,2.1,7.6-0.8,10.8-3.4c2.2-1.8,4.4-3.6,6.3-5.7c4.4-4.8,8.6-9.7,13.7-15.6c-0.4,2.7-1,4.4-0.9,6c0.5,5.4,0.6,10.9,2,16.1
		c0.9,3.1,3.8,5.6,7.9,3.6c4.8-2.3,6.2-6.1,5.1-10.2c-1.1-4.2-1.8-8.7-1.6-13.1c0.2-6.8,1.6-13.5,2-20.3
		C490.8,36.9,488.4,35.5,484.5,37.4z"/>
	<path d="M135.6,74.5c-1.6-1.3-3.5-3.3-3.6-5.1c-0.2-7.2,0.2-14.5,0.7-21.8c0.2-2.8,1.8-5.4,2-8.2c0.1-1.7-0.8-4.5-2-5
		c-1.5-0.7-4.4-0.2-5.7,0.9c-3.5,3-6.7,6.5-9.7,10.1c-5.4,6.5-10.6,13.1-16.7,20.6c1.2-7.9,2.2-14.6,3.4-21.3
		c0.8-4.3,0.2-8.1-4-10.3c-4.3-2.3-7,1.1-9.3,3.7C85,45.1,79.5,52.2,73.8,59.2c-1.4,1.8-3.1,3.4-4.6,5.1c-0.6-3.1-0.2-5.6,0.2-8
		c0.9-6.2,2-12.5,2.6-18.8c0.2-1.7-0.9-4.8-1.9-5c-2.2-0.4-5.4-0.3-6.8,1.1c-2.1,2-3.7,5.2-4.3,8.1c-1.8,7.8-2.9,15.7-4.3,23.5
		c-0.9,4.7-2,9.4-2.9,14.2c-0.7,3.5-0.4,7.4,3.3,8.5c2.5,0.8,6.2-0.1,8.6-1.5c3.1-1.8,5.8-4.6,8-7.4c5.1-6.6,9.8-13.4,14.6-20.2
		c0.9-1.3,1.9-2.6,3.5-4.9c-1.6,9.1-3.3,16.7-4.2,24.5c-0.3,2.4,0.7,5.9,2.4,7.3c1.5,1.2,5.4,1,7.2-0.2c4.5-3.1,8.4-6.9,12.3-10.8
		c2.9-2.8,5.4-6.1,8.7-10c0.3,4.1,0.3,7,0.7,9.9c0.9,7.4,4.8,11.7,11.5,13.4c4.6,1.1,6.7-1.6,8.6-5C138.8,79.6,138.7,77,135.6,74.5z
		"/>
	<path d="M390.5,51.2c0.6-4.4,0.7-9,0.4-13.5c-0.2-2.4-1.2-6.3-2.7-6.7c-2.2-0.6-5.7,0.6-7.4,2.3c-4.8,4.8-9.1,10.2-13.4,15.4
		c-3.2,3.9-6.2,8.1-9.3,12.1c-0.3-0.2-0.6-0.4-1-0.6c0.7-2.3,1.5-4.7,2.2-7c4.4-13.9,8.9-27.8,13-41.9c0.6-2-1-4.7-1.5-7
		c-2.8,0.8-6.3,1-8.3,2.7c-2,1.8-2.8,5.2-3.7,8c-5.9,19.7-11.7,39.5-17.6,59.3c-0.9,3.2-2.9,7.3,0.9,8.8c2.4,1,6.2-1.3,9.4-2.3
		c0.9-0.3,1.6-1.2,2.3-1.9c6.5-7.1,13-14.3,19.5-21.4c1-1.1,2-2.2,3.6-4c0,9-0.1,16.8,0,24.6c0.1,5.8,4.6,8.6,10,6.3
		c5.3-2.2,8.5-9.3,5.9-14.6C389.7,63.9,389.6,57.7,390.5,51.2z"/>
	<path d="M56,32.2c-1.7-1.9-5.5-3.3-8.1-2.9c-9,1.3-15.5,7.1-21,14.1c-5.5,7-6.8,14.2-1.9,22.1c0.8,1.3,1.4,2.7,2.1,4
		c2,3.9,0.4,6-3.5,6.9c-1.9,0.4-4,0.3-5.9,0.8c-3.2,0.8-6.5,1.5-9.3,3.2C7,81.1,6,84,6.2,85.7c0.2,1.3,2.6,3,4.2,3.3
		c12.2,2.4,25.6-4.1,30.9-15.3c1-2.1,0.9-5.3,0-7.4c-1.8-4.4-4.6-8.4-6.9-12.7c-2.3-4.4-0.7-7.9,3.7-9.3c1.2,2.2,1.8,4.7,3.1,5.3
		c1.3,0.5,3.8-0.6,5.2-1.7c2.9-2.5,5.9-5.1,7.9-8.2C55.9,37.6,57,33.4,56,32.2z"/>
	<path d="M340.2,43.9c-1.8-9.9-8.7-13.2-17.4-8c-2.5,1.5-4.9,3.3-6.3,4.3c-1.9-2.3-3.1-5.3-5.1-5.9c-4.2-1.3-6.8,1.5-8.1,5.4
		c-0.3,0.9-0.6,1.9-0.9,2.9c-1.1,3.5-2,7-3.2,10.5c-0.5,1.3-1.3,2.8-2.4,3.5c-8.6,5-17.3,10-26.1,14.8c-1.3,0.7-4,1.2-4.5,0.6
		c-0.9-1.2-1.3-3.4-0.9-4.9c1.6-5.9,3.8-11.7,5.5-17.6c1-3.6,3.2-5.1,6.7-6.4c7.4-2.8,14.6-6.2,21.6-10c1.5-0.8,1.7-4.2,2.4-6.4
		c-2-0.1-4.1-0.7-6-0.2c-4.5,1.1-8.9,2.8-13.3,4.1c-1.3,0.4-2.6,0.4-4.5,0.7c1.9-4.8,3.7-8.8,5.1-12.8c1.2-3.5,2.2-8-1.9-9.7
		c-3.7-1.5-6.4,2.1-8,5.3c-2.5,5.2-4.5,10.7-7,16c-0.7,1.4-2.6,3.2-3.9,3.1c-5.9-0.3-10.7,2-15.2,5.4c-5.2,4.1-10.4,8.2-15.8,12.6
		c0.5-4,1.4-7.6,1.2-11.2c-0.1-2.1-1.7-5.1-3.3-5.7c-1.6-0.6-5,0.9-6,2.5c-1.7,2.8-2.4,6.4-3,9.7c-1.3,7-2.3,14.1-3.4,21.2
		c-0.5,0-0.9,0-1.4,0c-1-4.4-3.9-4.8-7.3-3.3c-3.5,1.5-6.8,3.4-10.2,5.1c-2.7,1.4-5.3,2.7-9,4.6c0.3-3.1,0.3-4.7,0.7-6.3
		c2.1-8.4,4.3-16.7,6.3-25.2c0.8-3.2,0.6-6.8-3.4-7.7c-2.2-0.5-4.7,0.7-8.3,1.4c-3.8-4-6.4-4.3-13.1,0.8
		c-12.4,9.5-21.5,21.7-28.5,35.5c-1.8,3.6-2.2,6.9,0.9,10c3.3,3.2,7.2,3.9,11.1,2.1c4.2-2,8.1-4.6,11.8-7.4c3.5-2.5,6.6-5.5,9.8-8.2
		c0,3.5,0,6.8,0,10.1c0.1,7.6,3.8,10.7,10.8,7.7c9.2-4,18.1-8.8,26.4-12.9c-0.1,0.5-0.7,2.3-0.7,4.1c-0.2,5.9,3.7,9,9,6.8
		c2-0.8,3.9-3.7,4.3-5.9c2.6-16.1,14.1-24.2,27.3-30.7c1.5-0.7,3.4-0.7,5.4-1.1c-2.5,8.6-5.3,16.5-6.9,24.6
		c-0.8,4.3,0.1,9.2,1.1,13.6c0.8,3.6,3.8,4.8,7.5,3c4.3-2.2,8.7-4.1,12.9-6.5c7.2-4,14.2-8.3,22.1-13c-1.7,6.9-3.3,13-4.6,19.1
		c-1.9,8.6-3.8,17.2-5.1,25.9c-0.6,3.8,1.1,6.9,5.8,7c4.6,0.1,6.3-2.1,6.8-6.6c1.1-10.4,2.7-20.7,4-29.8c5.4,0.4,10.1,2.1,13.9,0.9
		C330.5,80.6,342.8,58.9,340.2,43.9z M156.3,69.5c4.1-6.6,6.6-14.8,16.9-16.9C172.2,63.8,163.3,65.7,156.3,69.5z M326.9,56.1
		c-1.5,5.1-4.2,10-7,14.6c-2,3.3-5.2,5.1-9.2,2c-1-0.8-2.8-0.6-5-1.1c2.6-6.1,4.9-11.9,7.4-17.6c0.5-1.1,1.2-2,1.9-2.9
		c2.6-3.6,6.5-6.5,10.4-4.5C327.2,47.4,327.7,53.1,326.9,56.1z"/>
	<path d="M537.1,63.3c-7.5,2.7-14.8,5.8-22.3,8.5c-2,0.7-4.4,0.4-6.6,0.6c-0.1-0.7-0.2-1.5-0.4-2.2c2.9-1.6,5.7-3.2,8.6-4.7
		c10.8-5.8,16.6-15.1,18.1-27c0.8-6.1-2.7-10-8.7-8.9c-4.4,0.8-9,2.7-12.6,5.4c-9.6,7.2-15.9,16.9-18.9,28.6c-0.8,3.3-1,7-0.6,10.4
		c1.2,9.7,6.7,13.4,15.9,10.6c7.3-2.3,14.4-5,21.4-8.1c3.7-1.7,7.2-4.3,10.1-7.1c1.3-1.2,1-4.1,1.4-6.2
		C540.7,63,538.8,62.7,537.1,63.3z M522.3,41.7c0.4,5.4-5.8,12.2-13.6,15.3C511.3,49.8,515.4,44.8,522.3,41.7z"/>
</g>
</svg>
