<?xml version="1.0" encoding="utf-8"?>
<!-- Generator: Adobe Illustrator 17.1.0, SVG Export Plug-In . SVG Version: 6.00 Build 0)  -->
<!DOCTYPE svg PUBLIC "-//W3C//DTD SVG 1.1//EN" "http://www.w3.org/Graphics/SVG/1.1/DTD/svg11.dtd">
<svg version="1.1" id="Layer_1" xmlns="http://www.w3.org/2000/svg" xmlns:xlink="http://www.w3.org/1999/xlink" x="0px" y="0px"
	 viewBox="0 0 136 108" enable-background="new 0 0 136 108" xml:space="preserve">
<g>
	<path d="M124.3,21c-17.6-17.9-41.9-23-67.4-6.7c-5.7,3.6-11.1,7.7-14.6,13.6c-2,3.4-1,7.5,2.2,10c2.9,2.3,5.1,2.2,8.5-0.9
		c6.9-6.4,14.7-11,24.5-13.3c-3,7.2-5.9,13.8-8.5,20.5c-5,12.8-10.2,25.4-14.5,38.4c-3.1,9.4,2.8,18.5,12.4,20.9
		c8.3,2.1,16.4,1.3,24-2.7c20.2-10.9,32.6-28.4,40.5-49.5C135.6,39.7,132.6,29.5,124.3,21z M115.4,50.3
		c-4.9,15.1-14.8,26.4-29.7,32.5c-2.3,0.9-5.2,0.4-7.8,0.6c0.1-2.5-0.4-5.2,0.5-7.5c5.2-14.4,10.6-28.6,16-42.9
		c1.1-2.9,2.2-5.8,3.3-8.9C110.3,26.2,119.2,38.7,115.4,50.3z"/>
	<path d="M39.9,16.5c-0.3-3.5-1.2-6.9-5-8C31,7.4,28,9.4,26.2,12.6c-2.2,3.9-4.6,7.8-5.6,12.1C15,47.5,9.8,70.4,4.7,93.4
		c-1.5,6.8,2.1,10.5,8.8,10.2c7.1-0.4,14.5-7.7,14.6-14.8c0.2-13.6,2.3-27,5.8-40.2c2.5-9.2,6.4-27.9,6.1-28
		C40,19.2,40.1,17.8,39.9,16.5z"/>
</g>
</svg>
