<?xml version="1.0" encoding="utf-8"?>
<!-- Generator: Adobe Illustrator 17.1.0, SVG Export Plug-In . SVG Version: 6.00 Build 0)  -->
<!DOCTYPE svg PUBLIC "-//W3C//DTD SVG 1.1//EN" "http://www.w3.org/Graphics/SVG/1.1/DTD/svg11.dtd">
<svg version="1.1" id="Layer_1" xmlns="http://www.w3.org/2000/svg" xmlns:xlink="http://www.w3.org/1999/xlink" x="0px" y="0px"
	 viewBox="0 0 519.3 128.2" enable-background="new 0 0 519.3 128.2" xml:space="preserve">
<g>
	<path d="M232.8,14.6c0.8-3.1,0.8-5.5-2.5-7c-3.7-1.7-5.4,0.6-6.6,3.3c-2.9,6.9-5.4,13.9-8.4,20.8c-0.7,1.6-2.2,3.6-3.6,4
		C194.3,39.9,182,50,175.4,66.3c-10.9-3.5-17.2,6.9-26.7,8.4c0.2-2,0.1-3.6,0.5-5.2c2-8.4,4.2-16.8,6.2-25.2c0.8-3.2,0.8-6.2-3-8
		c-3.7-1.8-5.5,0.2-7.2,2.9c-5.2-5.3-6.9-6-12.9-1.5c-6,4.6-11.9,9.8-16.5,15.8c-4.7,6-9.5,10.7-17,12.9c-7,2-13.7,5-20.6,7.3
		c-1.5,0.5-3.4-0.2-5.2-0.4c0-0.6,0-1.1,0-1.7c3-1.7,6.1-3.3,9.1-5c9.7-5.4,15.2-13.8,17.2-24.5c1.7-9-3-13.5-11.6-10.5
		c-5,1.7-9.9,4.9-13.7,8.6c-9.2,8.9-15.6,19.6-15.5,33c0.1,11.1,6.4,15.8,16.9,12.5c8.6-2.7,17-6.3,25.4-9.5
		c-0.5,8.4,6.2,13.4,14.2,9.4c5.2-2.5,9.7-6.3,14.4-9.7c2.2-1.6,4.2-3.5,6.9-5.9c-0.3,3-0.5,4.8-0.5,6.7c-0.1,2-0.2,4,0,6
		c0.6,5.7,4,8.2,9.3,6c9.2-3.7,18-8.1,26.8-12.2c2,9.2,8.5,12.4,17.6,7.1c5.8-3.4,11-7.8,16.7-11.9c-0.8,3.3-1.7,6.6-2.5,10
		c-1.2,5.2,0.3,8.1,4.4,8.9c4.9,1,7.4-1.1,8.2-6.8c0.6-4.1,0.8-8.3,1.8-12.3C223,52.6,227.9,33.6,232.8,14.6z M88.2,44.2
		c-1.8,6-6.4,10.8-13.6,14.5C75.1,52.1,81.8,44.8,88.2,44.2z M130.9,61.5c-4.3,3.9-10.3,8.1-13.9,10.8c-3.6,2.7-4.3,1.1-1.8-1.8
		c3.7-4.6,7.2-9.2,11.1-13.6c1.6-1.8,3.5-2.4,5.7-1.6C133.9,57,132.1,60.3,130.9,61.5z M186.8,73c0.2-9.6,11-19.8,21.3-21.1
		C202.2,60.4,196.3,67.7,186.8,73z"/>
	<path d="M420.4,64c0.2-7,1.6-13.9,2-20.8c0.3-4.6-2.3-6.2-6.3-3.8c-3,1.8-5.7,4-8.1,6.5c-6.2,6.5-12.1,13.3-18.5,20.4
		c0.5-1.9,0.8-3.3,1.2-4.6c1.8-7.4,3.5-14.8,5.5-22.1c1.5-5.5-2.3-5.7-5.5-5.3c-7.2,0.8-14.5,1.8-21.6,3.5
		c-10.3,2.5-11.3,4.6-8.8,14.7c0.2,1,0.5,1.9,0.6,2.9c0.4,8.5-2.3,15.9-9.2,20.9c-2.1,1.5-6.2,1.5-8.6,0.4c-1.3-0.6-1.8-5.2-1.1-7.5
		c1.3-4,3.8-7.7,6-11.4c2.7-4.4,6-8.4,8.4-13c0.9-1.8,0-4.5,0-6.8c-2.3,0.1-5.4-0.8-6.7,0.3c-12.6,10.6-20.9,23.7-21.1,40.7
		c-0.1,5.6,3,10,8.5,10.8c5,0.7,11,0.9,15.4-1.2c15.1-7.1,23.2-24.7,20.1-41.5c3.2-0.9,6.4-1.7,10.3-2.8c-0.7,2.3-1.3,3.5-1.6,4.8
		c-2.3,9.9-4.9,19.7-6.6,29.6c-1.2,6.9,2.7,9.3,9,6.1c2.3-1.2,4.6-2.8,6.4-4.7c5.7-5.8,11.2-11.8,17.4-18.4
		c-0.4,2.7-1.1,4.7-0.8,6.6c0.6,5.2,1.1,10.5,2.6,15.4c1,3.2,4.1,4.7,7.7,2.8c4.7-2.6,6.1-5.9,5-9.9C421.1,72.5,420.3,68.2,420.4,64
		z"/>
	<path d="M53.4,52.6c0.7-4.2,0.7-8.7,0.3-12.9c-0.2-2.5-1.3-6.4-2.9-7c-2-0.7-5.6,0.8-7.3,2.6C38,40.9,33.3,47.1,28.3,53.2
		c-2.4,2.9-4.6,5.9-7,8.9c-0.6-2.2-0.2-3.9,0.3-5.5c3.5-10.4,7.1-20.8,10.4-31.2c1.5-4.7,2.6-9.6,3.6-14.5c0.7-3.7-1.4-5.6-4.9-4.8
		c-2.2,0.5-4.5,2-6.1,3.7c-1.4,1.5-2.1,3.8-2.7,5.8C15.8,36.3,9.6,57.2,3.7,78.1c-0.6,2.1-0.3,5.9,1,6.6c1.8,1.1,5.2,0.8,7.2-0.3
		c3-1.6,5.7-4.1,8-6.6c6.6-7,12.9-14.3,19.7-21.9c0,8.3-0.3,15.9,0.2,23.5c0.1,2.4,1.7,6,3.6,6.8c2.3,1,5.9,0.2,8.3-1.1
		c4.2-2.3,6.3-8.5,4.2-12.7C52.7,66,52.3,59.5,53.4,52.6z"/>
	<path d="M322.4,51.4c0.5-4.6,0.5-9.3,0.2-14c-0.3-5.5-3.6-7-8.1-3.9c-2.4,1.7-4.7,3.8-6.6,6.1c-4.7,5.8-9.2,11.8-13.8,17.7
		c-1.2,1.6-2.6,3-3.9,4.5c-0.3-2.5,0.2-4.4,0.8-6.3c4.4-13.9,9-27.8,13.1-41.9c0.6-2.2-0.1-6.4-1.6-7.2c-3.3-1.8-6.9-0.3-8.9,3.2
		c-1.4,2.4-2.4,5.1-3.2,7.8c-6,19.9-11.9,39.8-17.6,59.8c-0.7,2.4,0.4,5.2,0.7,7.9c2.8-0.4,6.3,0.1,8.2-1.4
		c5.3-4.2,10.1-9.2,14.7-14.1c4.1-4.3,7.7-9,12.5-14.6c0,2.9,0,4.5,0,6.1c-0.1,6.3-0.4,12.7-0.3,19c0.1,5.8,4.7,8.6,10,6.4
		c4.9-2,8.7-9,6.3-13.7C321.4,65.8,321.5,58.8,322.4,51.4z"/>
	<path d="M254.2,37.8c-2.5,1.5-4.8,3.2-6.2,4.1c-1.6-2.3-2.5-5.3-4.3-5.9c-3.4-1.2-6.5,0.3-8.1,3.9c-0.5,1.2-1,2.5-1.3,3.8
		c-5.4,21.1-10.8,42.2-15.9,63.3c-0.9,3.5-1,7.2-0.8,10.9c0.1,3.5,2.8,4.7,6,4.6c3-0.1,5.7-0.7,6-4.5c0.3-3.1,0.5-6.3,1-9.4
		c1.2-7.9,2.5-15.7,3.5-22.4c5.2,0.4,9.9,2,13.7,0.8c14.3-4.5,26.8-26.2,24.4-40.9C270.5,35.6,263.5,32.3,254.2,37.8z M258.6,58.3
		c-1.4,5-4.1,9.7-6.9,14.1c-2.1,3.3-5.2,5.1-9.2,2c-1-0.8-2.7-0.6-5-1.1c2.7-6.2,5.2-12.1,7.8-18c0.4-0.9,1-1.7,1.6-2.5
		c2.7-3.5,6.5-6.7,10.4-4.6C259.1,49.3,259.5,55.2,258.6,58.3z"/>
	<path d="M508.9,30.6c-2.4,0.1-5,0.6-7.3,1.5c-8,3.2-13.9,9-18.5,16.1c-3.4,5.3-4,10.8-0.8,16.5c1.2,2.2,2.1,4.5,3.3,6.7
		c1.8,3.2,0.5,5.2-2.5,6.2c-2.2,0.7-4.6,0.6-6.8,1.2c-3.2,0.8-6.5,1.5-9.3,3.1c-1.4,0.8-2.7,3.8-2.3,5.4c0.3,1.5,2.8,3.2,4.6,3.6
		c11.9,2.1,24-3.8,30.1-14.3c1.8-3.1,2.3-6,0.2-9.3c-2.4-3.8-4.5-7.8-6.6-11.7c-2.4-4.4-1-7.6,4.2-9.8c0.8,5.9,2.8,7.7,6.1,5
		c4-3.3,7.9-7.2,10.9-11.5C517.1,35.1,514.1,30.5,508.9,30.6z"/>
	<path d="M473.2,70.6c1.1-1.5,0.9-3.9,1.3-5.9c-1.8,0-3.7-0.4-5.3,0.2c-7.8,2.8-15.5,6-23.3,8.7c-1.8,0.6-4,0.1-6,0.1
		c-0.1-0.6-0.2-1.3-0.4-1.9c2.7-1.5,5.4-2.9,8.1-4.3c11.2-5.9,17.4-15.2,18.8-27.7c0.7-6.2-2.8-9.5-9-8.7c-2.7,0.3-5.5,1.3-8,2.6
		c-9.1,4.8-15.4,12.4-19.3,21.5c-2.5,5.8-4.3,12.3-4.5,18.6c-0.3,10.5,6.3,15.3,16.2,12.1c8.6-2.8,17-6.6,25.3-10.4
		C469.4,74.6,471.7,72.7,473.2,70.6z M455.2,42.6c0.7-0.4,1.6-0.1,2.5-0.2c0,0.9,0.3,2.1-0.2,2.6c-2.8,3.3-5.6,6.7-8.7,9.7
		c-1.6,1.6-3.8,2.6-6.4,4.2C444.8,51.4,448.9,46.1,455.2,42.6z"/>
</g>
</svg>
