<?xml version="1.0" encoding="utf-8"?>
<!-- Generator: Adobe Illustrator 17.1.0, SVG Export Plug-In . SVG Version: 6.00 Build 0)  -->
<!DOCTYPE svg PUBLIC "-//W3C//DTD SVG 1.1//EN" "http://www.w3.org/Graphics/SVG/1.1/DTD/svg11.dtd">
<svg version="1.1" id="Layer_1" xmlns="http://www.w3.org/2000/svg" xmlns:xlink="http://www.w3.org/1999/xlink" x="0px" y="0px"
	 viewBox="0 0 310 128.7" enable-background="new 0 0 310 128.7" xml:space="preserve">
<g>
	<path d="M306.4,42.7c-1.6-8.1-8.2-11.8-15.7-8.2c-3.1,1.5-5.8,3.6-8.6,5.5c-0.7,0.5-1.4,1-2.4,1.8c0.7-7.1-0.9-9.7-6.3-9.6
		c-9,0.2-17.8,1.4-26.4,4.3c-8.5,2.9-9.7,5-7.1,13.7c2.6,8.9,0.1,16.5-5.3,23.3c-1.6,2-4.1,3.7-6.5,4.6c-5.5,2-9.4-1.7-7.8-7.4
		c1-3.3,2.5-6.6,4.3-9.5c3.1-5,6.7-9.7,9.9-14.6c1.2-1.8,2.3-3.8,2.9-5.9c1.1-3.7-2.1-6.8-5.7-5.5c-1.9,0.7-3.8,1.9-5.3,3.3
		c-5.6,5.4-10.4,11.4-14,18.3c-0.3,0.7-0.8,1.4-1.4,1.8c-8.3,4.8-16.5,9.6-24.9,14.1c-1.6,0.9-3.7,0.9-5.6,1.3
		c-0.2-2.1-1-4.3-0.5-6.2c1.8-6.5,4.2-12.8,6.2-19.2c0.9-2.9,2.6-4,5.5-5c7.5-2.7,14.8-5.8,22-9.2c1.9-0.9,3.3-3.1,4.5-5
		c0.5-0.9,0.4-2.7-0.2-3.6c-0.5-0.7-2.2-0.9-3.3-0.8c-1.4,0.1-2.8,0.8-4.3,1.3c-5.7,1.7-11.5,3.5-17.9,5.4c2-4.9,4-8.9,5.4-13.2
		c0.8-2.7,1.2-5.7,0.9-8.4c-0.5-3.7-3.1-4.7-6.1-2.5c-2.2,1.7-4.3,4-5.5,6.5c-2.6,5.5-4.8,11.3-6.9,17c-1,2.8-2.3,5.2-4.6,7.1
		c-2.2,1.9-3.5,4.5-3.2,7.7c0.1,1.6,0.1,3.3-0.3,4.8c-2,6.9-4.3,13.7-6.3,20.6c-1.8,5.9-1.8,11.8,1.3,17.3c1.8,3.3,3.3,3.9,6.7,2.4
		c4.6-2,9.1-4.1,13.5-6.5c6.7-3.7,13.2-7.6,19.8-11.5c0,2.4-0.1,4.7,0,6.9c0.4,5.1,2.8,9,7.7,10.6c6.1,2.1,12.6,2.3,18.1-1.2
		c10.2-6.5,17.9-15.3,20.8-27.4c1.3-5.3,2.3-10.8-1.3-16c4.8-1.4,9.5-2.7,14.2-4c-5.4,21.9-10.7,43.4-15.9,64.9
		c-1,4-1.2,8.3-1.4,12.5c-0.1,2.4,0.9,4.5,3.4,5.4c5.4,1.9,9.2-0.5,9.8-6.1c0.8-7.3,1.6-14.6,2.7-21.9c0.6-3.8,1.6-7.6,2.5-11.6
		c0.8,0.4,1.2,0.6,1.6,0.8c6,4.3,11.8,3.3,17.5-0.7c6.5-4.6,11.3-10.6,15.4-17.4C306.6,60.1,308.2,51.7,306.4,42.7z M283.4,74.3
		c-2.7,2.8-4.7,2.6-7.8,0.2c-1.8-1.4-2.4-1.4-5.1,0.4c-0.2-0.1-0.5-0.2-0.7-0.4c2.8-6.7,5.4-13.5,8.4-20c2-4.3,5.3-7.6,10.5-8.3
		c3.1-0.4,4.3,0.4,4.5,3.5C293.9,59.5,290,67.5,283.4,74.3z"/>
	<path d="M115.6,73.4c2-2.5,2.3-5.9,0.8-7.3c-2.1-2.1-4.6-1.2-6.9-0.4c-1.2,0.4-2.4,1-3.6,1.6c-3.7,2-7.3,4.1-11.1,6.1
		c-1.3,0.7-2.8,1.2-4.8,2.1c0-2-0.2-3.3,0-4.6c0.6-3.4,1.4-6.7,2.2-10c1.6-6.8,3.5-13.5,5-20.4c0.7-3.3-1-5.3-4.7-6.5
		c-2.8-0.9-3.6-0.5-5.7,3c-0.2,0.3-0.4,0.6-0.8,1.1c-0.4-0.7-0.7-1.1-1-1.5c-2.7-3.7-4.9-4.4-9-2.5c-2.4,1.1-4.9,2.5-6.9,4.2
		C57,48.4,47.6,60.8,40.6,74.9c-1.6,3.2-2,6.4,0.7,9.3c2.7,2.9,5.9,4.8,9.8,3.5c3.4-1.1,6.8-2.5,9.6-4.6c5.1-3.6,9.7-7.8,14.5-11.7
		c0.5-0.4,1-0.7,1.3-0.9c0,4.6-0.3,9.3,0.1,13.9c0.4,4.9,4.1,7.2,8.8,5.8c8.7-2.6,17-6.2,24.4-11.5C111.9,77.2,114,75.4,115.6,73.4z
		 M73.1,55.9c-0.6,2.3-1.5,4.7-3,6.4c-4.1,4.6-9.6,7.1-15,9.7c-0.3-0.2-0.6-0.5-0.8-0.7c3.5-4.7,6.8-9.5,10.5-13.9
		c1.4-1.6,3.7-2.6,5.7-3.4C72.1,53.1,73.5,54.2,73.1,55.9z"/>
	<path d="M165.3,40.6c-1.3-5-4.5-7.5-9.6-7.2c-2.5,0.1-5.2,0.9-7.4,2.1c-3.1,1.6-5.8,3.9-8.9,6c0.1-1.5,0.1-2.8,0.2-4.1
		c0.1-2.4-1.1-3.5-3.5-3.6c-4.9-0.4-7.1,0.9-8.8,5.6c-0.5,1.4-1,2.8-1.4,4.2c-5.3,21-10.7,41.9-15.8,63c-1,4.3-1.5,8.8-1.4,13.2
		c0,4,2.3,5.4,6.9,5.3c4.3-0.1,5.7-1.4,6.1-5.5c0.4-4.1,0.5-8.2,1.1-12.3c1.1-7.3,2.5-14.6,3.8-22.2c0.9,0.4,1.2,0.5,1.5,0.7
		c6.6,4.9,12.8,3.5,18.8-1.1c8.4-6.4,14.5-14.7,18.2-24.6C167.4,53.6,167,47.1,165.3,40.6z M151,61.3c-2.3,4.4-4.8,8.8-7.8,12.6
		c-2.5,3.2-4.9,3-8.1,0.5c-1.9-1.5-3.5-0.9-5.7,1c2.8-8.7,5.3-16.6,9.9-23.6c2.1-3.2,5.2-5.2,9.1-5.6c2.8-0.3,3.9,0.5,4.2,3.3
		C153,53.6,152.9,57.7,151,61.3z"/>
	<path d="M39.3,71.3c-1.7-3.1-3.1-3.7-6.4-2.6c-1.3,0.4-2.5,0.8-3.7,1.4c-3.9,1.7-7.9,3.4-12.2,5.2c0.2-0.8,0.2-1.3,0.3-1.7
		c4-13.1,7.9-26.1,11.9-39.2c2.7-8.7,5.5-17.4,8.2-26c0.7-2.1-0.1-3.4-2-4.2c-1.1-0.5-2.3-0.9-3.4-1.2c-1.5-0.5-2.8,0-3.5,1.5
		c-1,2-2.1,3.9-2.8,5.9C20.3,27.3,15,44.3,9.9,61.3C7.8,68.4,6.3,75.8,4.8,83c-1.1,4.9,1.8,8.1,6.8,7.6c2.4-0.2,5.1-0.5,7.1-1.6
		c6.5-3.7,12.8-7.6,19-11.7C40.6,75.4,40.7,73.9,39.3,71.3z"/>
</g>
</svg>
