<?xml version="1.0" encoding="utf-8"?>
<!-- Generator: Adobe Illustrator 18.1.1, SVG Export Plug-In . SVG Version: 6.00 Build 0)  -->
<!DOCTYPE svg PUBLIC "-//W3C//DTD SVG 1.1//EN" "http://www.w3.org/Graphics/SVG/1.1/DTD/svg11.dtd">
<svg version="1.1" id="Layer_1" xmlns="http://www.w3.org/2000/svg" xmlns:xlink="http://www.w3.org/1999/xlink" x="0px" y="0px"
	 viewBox="13.2 378.8 511.7 197.2" enable-background="new 13.2 378.8 511.7 197.2" xml:space="preserve">
<g>
	<path fill="#FFFFFF" d="M159.2,449.1c4.9-4.1,7-19.5,3.7-25.2c-3.7-6.1-9.2-8.5-15.5-4.9c-4.7,2.6-9,6.7-12,11
		c-7.2,10.5-13.5,21.6-20.3,32.3c-2,3.3-4.7,6.1-7,9.3c-0.8-0.3-1.5-0.5-2.3-0.8c-0.6-2.9-1.7-5.6-1.8-8.5
		c-0.5-7.2-0.5-14.5-1.2-21.6c-0.8-9.5-8.2-12.8-15.8-7.3c-3.2,2.1-6.1,4.9-8.7,7.6c-9.6,10.7-19,21.6-28.7,32.5
		c-2.1,2.5-5,4.4-7.5,6.8c-0.6-0.3-1.4-0.6-1.8-1.2c0.5-2.5,1-5,1.5-7.5c3.5-13.3,7.5-26.7,10.4-40.1c0.6-3.3-1.7-7.3-2.5-11
		c-3.8,1.5-9,2.1-11.1,5c-3.7,5-6.4,11.1-8.2,17.2c-5.5,17.7-10.4,35.7-15.1,53.5c-1.2,4-1.8,8.2-2,12.3c-0.2,8.4,5.2,12,12.5,8.2
		c5-2.6,10-6.1,14-10.4C54,492,68,477.4,82.8,462.3c0,6-0.3,11.1,0.2,16.5c0.8,8.5,1.4,17.2,3.5,25.3c2,7.6,7.5,9.5,14,4.9
		c4.1-3,8.4-6.8,11-11c8.8-13.7,17.2-27.9,25.8-41.6c2.9-4.4,6.1-8.5,9.3-12.8C151.3,446.6,152.5,455,159.2,449.1z"/>
	<path fill="#FFFFFF" d="M514.8,466.6c-13.9,7.5-27.5,15.5-41.5,23c-2.1,1.2-6.1,2-7.5,0.8c-1.5-1.4-2-5.2-1.4-7.5
		c3.2-10.8,6.5-21.8,10.5-32.3c1.2-3,4.7-5.6,7.8-7c11.3-5,23.3-8.8,34.3-14.6c4-2,8.8-9.9,7.6-12.7c-2.9-6.7-9-1.4-13.7,0
		c-8.4,2.1-16.5,4.7-25.6,7.3c3.7-10.4,7.2-18.5,9-27c0.8-3.5-2.3-7.8-3.7-11.7c-3.7,1.7-8.7,2.3-10.5,5.2
		c-4.7,7.2-7.6,15.1-11.7,22.8c-4.1,8-8.5,15.8-12.7,23.8c-1.4,2.5-2.9,4.9-3.3,7.5c-2,8.7-3.5,17.5-5.6,26.4c-0.5,2.1-2.1,5-4,5.6
		c-13.7,5.3-27.3,10.5-41.3,15.1c-2,0.6-4.7-0.8-7.2-1.2c0-0.8,0-1.7,0-2.5c4.9-2.6,9.6-5.2,14.5-7.8c17.8-9.9,27.9-25.2,29.9-45.3
		c1.2-11-5.6-17.7-16.3-14.3c-9,2.9-18,7.6-25,13.9c-14.6,13-23.6,29.9-27.1,49.1c-12.7-3.7-21.8,7-33.8,8.8c0.6-2.9,1.2-5,1.7-7.2
		c9.3-29.9,18.9-59.6,27.9-89.6c1.5-5,6.7-11.7-2.6-15.4c-9.5-3.7-11,3.8-13,9.5c-5.8,16.6-11.3,33.7-16.5,50.5
		c-4.9,16-9.2,32-14.2,49.5c-3.8-8.7-9-8-15-5.3c-6.7,3-13.5,5.5-21.2,8.7c0.8-3.2,1.2-5,1.7-6.7c9.9-31.5,19.5-63,29.3-94.5
		c1.7-5.3,2-9.5-4.4-11.9c-6.7-2.3-9.2,1.5-11,6.5c-2.9,7.5-6,15-8.4,22.7c-7,22.7-13.9,45.6-20.7,68.3
		c-16.2-1.8-26.5,12.3-41.9,15.7c0.6-5.3,1-9.9,2-14c3-12.3,6.1-24.7,9.5-37c1.5-5.5,0.8-9.9-4.7-12.7c-5.5-3-9.5-1.2-12.3,4.9
		c-8.7-8.8-10.5-9.2-20.3-3.8c-2.9,1.7-5.8,3.3-8.4,5.5c-18.1,15.5-32.2,34.3-43,55.6c-3,5.8-4.1,11.7,1,16.9
		c5.2,5.5,12,7.2,18.1,3.8c8.8-4.4,16.8-10.5,25-16.2c4-2.6,7.3-6.1,11.9-10.2c0,7.2,0,12.7,0,18.1c0.2,11.5,5.8,16.3,16.3,12.2
		c14.3-5.6,28.2-12.7,41.9-19c-0.3,1.5-0.8,4.1-1.2,6.7c-1.7,10.5,3,15.7,13.5,13.7c5-1,10.2-3,14.6-5.5
		c8.8-4.9,17.2-10.5,26.4-16.2c-0.5,3.3-1.2,6-1.5,8.7c-1.4,10.2,3.2,14.8,13.3,12.8c5-1,10.2-3,14.6-5.5
		c8.7-4.9,16.8-10.2,25.3-15.5c9.5,19,13,20.7,33.4,13.5c12.2-4.3,24.1-9.3,36.1-14.2c0.6,4.1,0.8,8.5,1.8,12.7
		c3.2,11.3,6.8,13.7,17.2,8.2c18.9-10,37-21.2,55.3-32.2c3.5-2,6.8-5.3,8.5-8.8c1.4-3,0.2-7.2,0.2-11
		C520.3,465.1,517.2,465.2,514.8,466.6z M420.3,441.6c-4,12.2-13,18.5-23.5,24.7C399.9,453.1,409.8,442.5,420.3,441.6z M195,474.7
		c-6.1,5-13.3,8.8-20,13c-0.6-0.6-1.4-1.4-2-2c4.7-6.5,8.7-13.7,14.2-19.3c3.3-3.3,12.7-6.8,13.1-6
		C204.8,466.9,199.3,471.2,195,474.7z"/>
</g>
</svg>
